<?xml version="1.0" encoding="UTF-8" standalone="no"?>
<!DOCTYPE svg PUBLIC "-//W3C//DTD SVG 1.1//EN"
"http://www.w3.org/Graphics/SVG/1.1/DTD/svg11.dtd">
<svg version="1.1" xmlns="http://www.w3.org/2000/svg" xmlns:xlink="http://www.w3.org/1999/xlink">
<defs>
<style type="text/css"><![CDATA[
.g1_50{
fill: none;
stroke: #000000;
stroke-width: 1;
stroke-linecap: butt;
stroke-linejoin: miter;
}
]]></style>
</defs>
<path d="M108.5,81.5l693,0" class="g1_50" />
<path d="M108.5,220.5l146,0" class="g1_50" />
<path d="M108.5,220.5l146,0" class="g1_50" />
<path d="M108.5,240.5l0,-20" class="g1_50" />
<path d="M147.5,240.5l0,-20" class="g1_50" />
<path d="M254.5,240.5l0,-20" class="g1_50" />
<path d="M108.5,240.5l146,0" class="g1_50" />
<path d="M108.5,240.5l146,0" class="g1_50" />
<path d="M108.5,261.5l0,-20" class="g1_50" />
<path d="M147.5,261.5l0,-20" class="g1_50" />
<path d="M254.5,261.5l0,-20" class="g1_50" />
<path d="M108.5,261.5l146,0" class="g1_50" />
<path d="M108.5,261.5l146,0" class="g1_50" />
<path d="M108.5,709.5l361,0" class="g1_50" />
<path d="M108.5,709.5l361,0" class="g1_50" />
<path d="M108.5,731.5l0,-22" class="g1_50" />
<path d="M198.5,731.5l0,-22" class="g1_50" />
<path d="M469.5,731.5l0,-22" class="g1_50" />
<path d="M108.5,731.5l361,0" class="g1_50" />
<path d="M108.5,731.5l361,0" class="g1_50" />
<path d="M108.5,753.5l0,-22" class="g1_50" />
<path d="M198.5,753.5l0,-22" class="g1_50" />
<path d="M469.5,753.5l0,-22" class="g1_50" />
<path d="M108.5,753.5l361,0" class="g1_50" />
<path d="M108.5,753.5l361,0" class="g1_50" />
<path d="M108.5,775.5l0,-22" class="g1_50" />
<path d="M198.5,775.5l0,-22" class="g1_50" />
<path d="M469.5,775.5l0,-22" class="g1_50" />
<path d="M108.5,775.5l361,0" class="g1_50" />
<path d="M108.5,775.5l361,0" class="g1_50" />
<path d="M108.5,798.5l0,-22" class="g1_50" />
<path d="M198.5,798.5l0,-22" class="g1_50" />
<path d="M469.5,798.5l0,-22" class="g1_50" />
<path d="M108.5,798.5l361,0" class="g1_50" />
<path d="M108.5,798.5l361,0" class="g1_50" />
<path d="M108.5,820.5l0,-22" class="g1_50" />
<path d="M198.5,820.5l0,-22" class="g1_50" />
<path d="M469.5,820.5l0,-22" class="g1_50" />
<path d="M108.5,820.5l361,0" class="g1_50" />
<path d="M108.5,820.5l361,0" class="g1_50" />
<path d="M108.5,842.5l0,-22" class="g1_50" />
<path d="M198.5,842.5l0,-22" class="g1_50" />
<path d="M469.5,842.5l0,-22" class="g1_50" />
<path d="M108.5,842.5l361,0" class="g1_50" />
<path d="M108.5,842.5l361,0" class="g1_50" />
<path d="M108.5,864.5l0,-21" class="g1_50" />
<path d="M198.5,864.5l0,-21" class="g1_50" />
<path d="M469.5,864.5l0,-21" class="g1_50" />
<path d="M108.5,865.5l361,0" class="g1_50" />
<path d="M108.5,865.5l361,0" class="g1_50" />
<path d="M108.5,887.5l0,-22" class="g1_50" />
<path d="M198.5,887.5l0,-22" class="g1_50" />
<path d="M469.5,887.5l0,-22" class="g1_50" />
<path d="M108.5,887.5l361,0" class="g1_50" />
<path d="M108.5,887.5l361,0" class="g1_50" />
<path d="M108.5,909.5l0,-22" class="g1_50" />
<path d="M198.5,909.5l0,-22" class="g1_50" />
<path d="M469.5,909.5l0,-22" class="g1_50" />
<path d="M108.5,909.5l361,0" class="g1_50" />
<path d="M108.5,909.5l361,0" class="g1_50" />
<path d="M108.5,1197.5l693,0" class="g1_50" />
</svg>