<?xml version="1.0" encoding="UTF-8" standalone="no"?>
<!DOCTYPE svg PUBLIC "-//W3C//DTD SVG 1.1//EN"
"http://www.w3.org/Graphics/SVG/1.1/DTD/svg11.dtd">
<svg version="1.1" xmlns="http://www.w3.org/2000/svg" xmlns:xlink="http://www.w3.org/1999/xlink">
<defs>
<style type="text/css"><![CDATA[
.g1_32{
fill: none;
stroke: #000000;
stroke-width: 1;
stroke-linecap: butt;
stroke-linejoin: miter;
}
]]></style>
</defs>
<path d="M108.5,81.5l693,0" class="g1_32" />
<path d="M108.5,220.5l383,0" class="g1_32" />
<path d="M108.5,220.5l383,0" class="g1_32" />
<path d="M108.5,242.5l0,-22" class="g1_32" />
<path d="M144.5,242.5l0,-22" class="g1_32" />
<path d="M491.5,242.5l0,-22" class="g1_32" />
<path d="M108.5,242.5l383,0" class="g1_32" />
<path d="M108.5,242.5l383,0" class="g1_32" />
<path d="M108.5,517.5l463,0" class="g1_32" />
<path d="M108.5,517.5l463,0" class="g1_32" />
<path d="M108.5,539.5l0,-22" class="g1_32" />
<path d="M144.5,539.5l0,-22" class="g1_32" />
<path d="M571.5,539.5l0,-22" class="g1_32" />
<path d="M108.5,539.5l463,0" class="g1_32" />
<path d="M108.5,539.5l463,0" class="g1_32" />
<path d="M108.5,561.5l0,-22" class="g1_32" />
<path d="M144.5,561.5l0,-22" class="g1_32" />
<path d="M571.5,561.5l0,-22" class="g1_32" />
<path d="M108.5,561.5l463,0" class="g1_32" />
<path d="M108.5,561.5l463,0" class="g1_32" />
<path d="M108.5,833.5l394,0" class="g1_32" />
<path d="M108.5,833.5l394,0" class="g1_32" />
<path d="M108.5,855.5l0,-22" class="g1_32" />
<path d="M146.5,855.5l0,-22" class="g1_32" />
<path d="M502.5,855.5l0,-22" class="g1_32" />
<path d="M108.5,855.5l394,0" class="g1_32" />
<path d="M108.5,855.5l394,0" class="g1_32" />
<path d="M108.5,877.5l0,-22" class="g1_32" />
<path d="M146.5,877.5l0,-22" class="g1_32" />
<path d="M502.5,877.5l0,-22" class="g1_32" />
<path d="M108.5,877.5l394,0" class="g1_32" />
<path d="M108.5,877.5l394,0" class="g1_32" />
<path d="M108.5,897.5l0,-20" class="g1_32" />
<path d="M146.5,897.5l0,-20" class="g1_32" />
<path d="M502.5,897.5l0,-20" class="g1_32" />
<path d="M108.5,897.5l394,0" class="g1_32" />
<path d="M108.5,897.5l394,0" class="g1_32" />
<path d="M108.5,1197.5l693,0" class="g1_32" />
</svg>