<?xml version="1.0" encoding="UTF-8" standalone="no"?>
<!DOCTYPE svg PUBLIC "-//W3C//DTD SVG 1.1//EN"
"http://www.w3.org/Graphics/SVG/1.1/DTD/svg11.dtd">
<svg version="1.1" xmlns="http://www.w3.org/2000/svg" xmlns:xlink="http://www.w3.org/1999/xlink">
<defs>
<style type="text/css"><![CDATA[
.g1_29{
fill: none;
stroke: #000000;
stroke-width: 1;
stroke-linecap: butt;
stroke-linejoin: miter;
}
]]></style>
</defs>
<path d="M108.5,81.5l693,0" class="g1_29" />
<path d="M108.5,601.5l163,0" class="g1_29" />
<path d="M108.5,601.5l163,0" class="g1_29" />
<path d="M108.5,623.5l0,-22" class="g1_29" />
<path d="M140.5,623.5l0,-22" class="g1_29" />
<path d="M271.5,623.5l0,-22" class="g1_29" />
<path d="M108.5,623.5l163,0" class="g1_29" />
<path d="M108.5,623.5l163,0" class="g1_29" />
<path d="M108.5,643.5l0,-19" class="g1_29" />
<path d="M140.5,643.5l0,-19" class="g1_29" />
<path d="M271.5,643.5l0,-19" class="g1_29" />
<path d="M108.5,644.5l163,0" class="g1_29" />
<path d="M108.5,644.5l163,0" class="g1_29" />
<path d="M108.5,663.5l0,-19" class="g1_29" />
<path d="M140.5,663.5l0,-19" class="g1_29" />
<path d="M271.5,663.5l0,-19" class="g1_29" />
<path d="M108.5,664.5l163,0" class="g1_29" />
<path d="M108.5,664.5l163,0" class="g1_29" />
<path d="M108.5,684.5l0,-20" class="g1_29" />
<path d="M140.5,684.5l0,-20" class="g1_29" />
<path d="M271.5,684.5l0,-20" class="g1_29" />
<path d="M108.5,684.5l163,0" class="g1_29" />
<path d="M108.5,684.5l163,0" class="g1_29" />
<path d="M108.5,706.5l0,-22" class="g1_29" />
<path d="M140.5,706.5l0,-22" class="g1_29" />
<path d="M271.5,706.5l0,-22" class="g1_29" />
<path d="M108.5,706.5l163,0" class="g1_29" />
<path d="M108.5,706.5l163,0" class="g1_29" />
<path d="M108.5,726.5l0,-20" class="g1_29" />
<path d="M140.5,726.5l0,-20" class="g1_29" />
<path d="M271.5,726.5l0,-20" class="g1_29" />
<path d="M108.5,727.5l163,0" class="g1_29" />
<path d="M108.5,727.5l163,0" class="g1_29" />
<path d="M108.5,912.5l163,0" class="g1_29" />
<path d="M108.5,912.5l163,0" class="g1_29" />
<path d="M108.5,934.5l0,-21" class="g1_29" />
<path d="M140.5,934.5l0,-21" class="g1_29" />
<path d="M271.5,934.5l0,-21" class="g1_29" />
<path d="M108.5,935.5l163,0" class="g1_29" />
<path d="M108.5,935.5l163,0" class="g1_29" />
<path d="M108.5,954.5l0,-19" class="g1_29" />
<path d="M140.5,954.5l0,-19" class="g1_29" />
<path d="M271.5,954.5l0,-19" class="g1_29" />
<path d="M108.5,955.5l163,0" class="g1_29" />
<path d="M108.5,955.5l163,0" class="g1_29" />
<path d="M108.5,975.5l0,-20" class="g1_29" />
<path d="M140.5,975.5l0,-20" class="g1_29" />
<path d="M271.5,975.5l0,-20" class="g1_29" />
<path d="M108.5,975.5l163,0" class="g1_29" />
<path d="M108.5,975.5l163,0" class="g1_29" />
<path d="M108.5,995.5l0,-20" class="g1_29" />
<path d="M140.5,995.5l0,-20" class="g1_29" />
<path d="M271.5,995.5l0,-20" class="g1_29" />
<path d="M108.5,995.5l163,0" class="g1_29" />
<path d="M108.5,995.5l163,0" class="g1_29" />
<path d="M108.5,1017.5l0,-22" class="g1_29" />
<path d="M140.5,1017.5l0,-22" class="g1_29" />
<path d="M271.5,1017.5l0,-22" class="g1_29" />
<path d="M108.5,1017.5l163,0" class="g1_29" />
<path d="M108.5,1017.5l163,0" class="g1_29" />
<path d="M108.5,1037.5l0,-19" class="g1_29" />
<path d="M140.5,1037.5l0,-19" class="g1_29" />
<path d="M271.5,1037.5l0,-19" class="g1_29" />
<path d="M108.5,1038.5l163,0" class="g1_29" />
<path d="M108.5,1038.5l163,0" class="g1_29" />
<path d="M108.5,1197.5l693,0" class="g1_29" />
</svg>