<?xml version="1.0" encoding="UTF-8" standalone="no"?>
<!DOCTYPE svg PUBLIC "-//W3C//DTD SVG 1.1//EN"
"http://www.w3.org/Graphics/SVG/1.1/DTD/svg11.dtd">
<svg version="1.1" xmlns="http://www.w3.org/2000/svg" xmlns:xlink="http://www.w3.org/1999/xlink">
<defs>
<style type="text/css"><![CDATA[
.g1_25{
fill: none;
stroke: #000000;
stroke-width: 1;
stroke-linecap: butt;
stroke-linejoin: miter;
}
]]></style>
</defs>
<path d="M108.5,81.5l693,0" class="g1_25" />
<path d="M108.5,356.5l457,0" class="g1_25" />
<path d="M108.5,356.5l457,0" class="g1_25" />
<path d="M108.5,378.5l0,-21" class="g1_25" />
<path d="M138.5,378.5l0,-21" class="g1_25" />
<path d="M565.5,378.5l0,-21" class="g1_25" />
<path d="M108.5,378.5l457,0" class="g1_25" />
<path d="M108.5,378.5l457,0" class="g1_25" />
<path d="M108.5,400.5l0,-21" class="g1_25" />
<path d="M138.5,400.5l0,-21" class="g1_25" />
<path d="M565.5,400.5l0,-21" class="g1_25" />
<path d="M108.5,400.5l457,0" class="g1_25" />
<path d="M108.5,400.5l457,0" class="g1_25" />
<path d="M108.5,422.5l0,-21" class="g1_25" />
<path d="M138.5,422.5l0,-21" class="g1_25" />
<path d="M565.5,422.5l0,-21" class="g1_25" />
<path d="M108.5,423.5l457,0" class="g1_25" />
<path d="M108.5,423.5l457,0" class="g1_25" />
<path d="M108.5,445.5l0,-22" class="g1_25" />
<path d="M138.5,445.5l0,-22" class="g1_25" />
<path d="M565.5,445.5l0,-22" class="g1_25" />
<path d="M108.5,445.5l457,0" class="g1_25" />
<path d="M108.5,445.5l457,0" class="g1_25" />
<path d="M108.5,467.5l0,-22" class="g1_25" />
<path d="M138.5,467.5l0,-22" class="g1_25" />
<path d="M565.5,467.5l0,-22" class="g1_25" />
<path d="M108.5,467.5l457,0" class="g1_25" />
<path d="M108.5,467.5l457,0" class="g1_25" />
<path d="M108.5,688.5l369,0" class="g1_25" />
<path d="M108.5,688.5l369,0" class="g1_25" />
<path d="M108.5,710.5l0,-21" class="g1_25" />
<path d="M140.5,710.5l0,-21" class="g1_25" />
<path d="M477.5,710.5l0,-21" class="g1_25" />
<path d="M108.5,710.5l369,0" class="g1_25" />
<path d="M108.5,710.5l369,0" class="g1_25" />
<path d="M108.5,732.5l0,-21" class="g1_25" />
<path d="M140.5,732.5l0,-21" class="g1_25" />
<path d="M477.5,732.5l0,-21" class="g1_25" />
<path d="M108.5,733.5l369,0" class="g1_25" />
<path d="M108.5,733.5l369,0" class="g1_25" />
<path d="M108.5,754.5l0,-21" class="g1_25" />
<path d="M140.5,754.5l0,-21" class="g1_25" />
<path d="M477.5,754.5l0,-21" class="g1_25" />
<path d="M108.5,755.5l369,0" class="g1_25" />
<path d="M108.5,755.5l369,0" class="g1_25" />
<path d="M108.5,1067.5l251,0" class="g1_25" />
<path d="M108.5,1067.5l251,0" class="g1_25" />
<path d="M108.5,1089.5l0,-21" class="g1_25" />
<path d="M140.5,1089.5l0,-21" class="g1_25" />
<path d="M358.5,1089.5l0,-21" class="g1_25" />
<path d="M108.5,1089.5l251,0" class="g1_25" />
<path d="M108.5,1089.5l251,0" class="g1_25" />
<path d="M108.5,1111.5l0,-21" class="g1_25" />
<path d="M140.5,1111.5l0,-21" class="g1_25" />
<path d="M358.5,1111.5l0,-21" class="g1_25" />
<path d="M108.5,1111.5l251,0" class="g1_25" />
<path d="M108.5,1111.5l251,0" class="g1_25" />
<path d="M108.5,1133.5l0,-21" class="g1_25" />
<path d="M140.5,1133.5l0,-21" class="g1_25" />
<path d="M358.5,1133.5l0,-21" class="g1_25" />
<path d="M108.5,1134.5l251,0" class="g1_25" />
<path d="M108.5,1134.5l251,0" class="g1_25" />
<path d="M108.5,1156.5l0,-22" class="g1_25" />
<path d="M140.5,1156.5l0,-22" class="g1_25" />
<path d="M358.5,1156.5l0,-22" class="g1_25" />
<path d="M108.5,1156.5l251,0" class="g1_25" />
<path d="M108.5,1156.5l251,0" class="g1_25" />
<path d="M108.5,1197.5l693,0" class="g1_25" />
</svg>