<?xml version="1.0" encoding="UTF-8" standalone="no"?>
<!DOCTYPE svg PUBLIC "-//W3C//DTD SVG 1.1//EN"
"http://www.w3.org/Graphics/SVG/1.1/DTD/svg11.dtd">
<svg version="1.1" xmlns="http://www.w3.org/2000/svg" xmlns:xlink="http://www.w3.org/1999/xlink">
<defs>
<style type="text/css"><![CDATA[
.g1_35{
fill: none;
stroke: #000000;
stroke-width: 1;
stroke-linecap: butt;
stroke-linejoin: miter;
}
]]></style>
</defs>
<path d="M108.5,81.5l693,0" class="g1_35" />
<path d="M108.5,220.5l295,0" class="g1_35" />
<path d="M108.5,220.5l295,0" class="g1_35" />
<path d="M108.5,242.5l0,-22" class="g1_35" />
<path d="M151.5,242.5l0,-22" class="g1_35" />
<path d="M403.5,242.5l0,-22" class="g1_35" />
<path d="M108.5,242.5l295,0" class="g1_35" />
<path d="M108.5,242.5l295,0" class="g1_35" />
<path d="M108.5,264.5l0,-22" class="g1_35" />
<path d="M151.5,264.5l0,-22" class="g1_35" />
<path d="M403.5,264.5l0,-22" class="g1_35" />
<path d="M108.5,264.5l295,0" class="g1_35" />
<path d="M108.5,264.5l295,0" class="g1_35" />
<path d="M108.5,488.5l281,0" class="g1_35" />
<path d="M108.5,488.5l281,0" class="g1_35" />
<path d="M108.5,509.5l0,-21" class="g1_35" />
<path d="M146.5,509.5l0,-21" class="g1_35" />
<path d="M388.5,509.5l0,-21" class="g1_35" />
<path d="M108.5,510.5l281,0" class="g1_35" />
<path d="M108.5,510.5l281,0" class="g1_35" />
<path d="M108.5,531.5l0,-21" class="g1_35" />
<path d="M146.5,531.5l0,-21" class="g1_35" />
<path d="M388.5,531.5l0,-21" class="g1_35" />
<path d="M108.5,532.5l281,0" class="g1_35" />
<path d="M108.5,532.5l281,0" class="g1_35" />
<path d="M108.5,554.5l0,-22" class="g1_35" />
<path d="M146.5,554.5l0,-22" class="g1_35" />
<path d="M388.5,554.5l0,-22" class="g1_35" />
<path d="M108.5,554.5l281,0" class="g1_35" />
<path d="M108.5,554.5l281,0" class="g1_35" />
<path d="M108.5,576.5l0,-22" class="g1_35" />
<path d="M146.5,576.5l0,-22" class="g1_35" />
<path d="M388.5,576.5l0,-22" class="g1_35" />
<path d="M108.5,576.5l281,0" class="g1_35" />
<path d="M108.5,576.5l281,0" class="g1_35" />
<path d="M108.5,851.5l250,0" class="g1_35" />
<path d="M108.5,851.5l250,0" class="g1_35" />
<path d="M108.5,873.5l0,-21" class="g1_35" />
<path d="M136.5,873.5l0,-21" class="g1_35" />
<path d="M358.5,873.5l0,-21" class="g1_35" />
<path d="M108.5,874.5l250,0" class="g1_35" />
<path d="M108.5,874.5l250,0" class="g1_35" />
<path d="M108.5,897.5l0,-23" class="g1_35" />
<path d="M136.5,897.5l0,-23" class="g1_35" />
<path d="M358.5,897.5l0,-23" class="g1_35" />
<path d="M108.5,897.5l250,0" class="g1_35" />
<path d="M108.5,897.5l250,0" class="g1_35" />
<path d="M108.5,1197.5l693,0" class="g1_35" />
</svg>