<?xml version="1.0" encoding="UTF-8" standalone="no"?>
<!DOCTYPE svg PUBLIC "-//W3C//DTD SVG 1.1//EN"
"http://www.w3.org/Graphics/SVG/1.1/DTD/svg11.dtd">
<svg version="1.1" xmlns="http://www.w3.org/2000/svg" xmlns:xlink="http://www.w3.org/1999/xlink">
<defs>
<style type="text/css"><![CDATA[
.g1_38{
fill: none;
stroke: #000000;
stroke-width: 1;
stroke-linecap: butt;
stroke-linejoin: miter;
}
]]></style>
</defs>
<path d="M108.5,81.5l693,0" class="g1_38" />
<path d="M108.5,135.5l583,0" class="g1_38" />
<path d="M108.5,135.5l583,0" class="g1_38" />
<path d="M108.5,135.5l583,0" class="g1_38" />
<path d="M108.5,157.5l0,-22" class="g1_38" />
<path d="M195.5,157.5l0,-22" class="g1_38" />
<path d="M691.5,157.5l0,-22" class="g1_38" />
<path d="M108.5,157.5l583,0" class="g1_38" />
<path d="M108.5,157.5l583,0" class="g1_38" />
<path d="M108.5,179.5l0,-22" class="g1_38" />
<path d="M195.5,179.5l0,-22" class="g1_38" />
<path d="M691.5,179.5l0,-22" class="g1_38" />
<path d="M108.5,179.5l583,0" class="g1_38" />
<path d="M108.5,179.5l583,0" class="g1_38" />
<path d="M108.5,203.5l0,-23" class="g1_38" />
<path d="M195.5,203.5l0,-23" class="g1_38" />
<path d="M691.5,203.5l0,-23" class="g1_38" />
<path d="M108.5,204.5l583,0" class="g1_38" />
<path d="M108.5,204.5l583,0" class="g1_38" />
<path d="M108.5,226.5l0,-22" class="g1_38" />
<path d="M195.5,226.5l0,-22" class="g1_38" />
<path d="M691.5,226.5l0,-22" class="g1_38" />
<path d="M108.5,226.5l583,0" class="g1_38" />
<path d="M108.5,226.5l583,0" class="g1_38" />
<path d="M108.5,248.5l0,-22" class="g1_38" />
<path d="M195.5,248.5l0,-22" class="g1_38" />
<path d="M691.5,248.5l0,-22" class="g1_38" />
<path d="M108.5,248.5l583,0" class="g1_38" />
<path d="M108.5,248.5l583,0" class="g1_38" />
<path d="M108.5,270.5l0,-21" class="g1_38" />
<path d="M195.5,270.5l0,-21" class="g1_38" />
<path d="M691.5,270.5l0,-21" class="g1_38" />
<path d="M108.5,271.5l583,0" class="g1_38" />
<path d="M108.5,271.5l583,0" class="g1_38" />
<path d="M108.5,292.5l0,-21" class="g1_38" />
<path d="M195.5,292.5l0,-21" class="g1_38" />
<path d="M691.5,292.5l0,-21" class="g1_38" />
<path d="M108.5,293.5l583,0" class="g1_38" />
<path d="M108.5,293.5l583,0" class="g1_38" />
<path d="M108.5,315.5l0,-22" class="g1_38" />
<path d="M195.5,315.5l0,-22" class="g1_38" />
<path d="M691.5,315.5l0,-22" class="g1_38" />
<path d="M108.5,315.5l583,0" class="g1_38" />
<path d="M108.5,315.5l583,0" class="g1_38" />
<path d="M108.5,337.5l0,-22" class="g1_38" />
<path d="M195.5,337.5l0,-22" class="g1_38" />
<path d="M691.5,337.5l0,-22" class="g1_38" />
<path d="M108.5,337.5l583,0" class="g1_38" />
<path d="M108.5,337.5l583,0" class="g1_38" />
<path d="M108.5,612.5l498,0" class="g1_38" />
<path d="M108.5,612.5l498,0" class="g1_38" />
<path d="M108.5,633.5l0,-21" class="g1_38" />
<path d="M159.5,633.5l0,-21" class="g1_38" />
<path d="M606.5,633.5l0,-21" class="g1_38" />
<path d="M108.5,634.5l498,0" class="g1_38" />
<path d="M108.5,634.5l498,0" class="g1_38" />
<path d="M108.5,655.5l0,-21" class="g1_38" />
<path d="M159.5,655.5l0,-21" class="g1_38" />
<path d="M606.5,655.5l0,-21" class="g1_38" />
<path d="M108.5,656.5l498,0" class="g1_38" />
<path d="M108.5,656.5l498,0" class="g1_38" />
<path d="M108.5,678.5l0,-22" class="g1_38" />
<path d="M159.5,678.5l0,-22" class="g1_38" />
<path d="M606.5,678.5l0,-22" class="g1_38" />
<path d="M108.5,678.5l498,0" class="g1_38" />
<path d="M108.5,678.5l498,0" class="g1_38" />
<path d="M108.5,702.5l0,-24" class="g1_38" />
<path d="M159.5,702.5l0,-24" class="g1_38" />
<path d="M606.5,702.5l0,-24" class="g1_38" />
<path d="M108.5,702.5l498,0" class="g1_38" />
<path d="M108.5,702.5l498,0" class="g1_38" />
<path d="M108.5,1070.5l548,0" class="g1_38" />
<path d="M108.5,1070.5l548,0" class="g1_38" />
<path d="M108.5,1092.5l0,-22" class="g1_38" />
<path d="M159.5,1092.5l0,-22" class="g1_38" />
<path d="M655.5,1092.5l0,-22" class="g1_38" />
<path d="M108.5,1092.5l548,0" class="g1_38" />
<path d="M108.5,1092.5l548,0" class="g1_38" />
<path d="M108.5,1114.5l0,-22" class="g1_38" />
<path d="M159.5,1114.5l0,-22" class="g1_38" />
<path d="M655.5,1114.5l0,-22" class="g1_38" />
<path d="M108.5,1114.5l548,0" class="g1_38" />
<path d="M108.5,1114.5l548,0" class="g1_38" />
<path d="M108.5,1138.5l0,-24" class="g1_38" />
<path d="M159.5,1138.5l0,-24" class="g1_38" />
<path d="M655.5,1138.5l0,-24" class="g1_38" />
<path d="M108.5,1139.5l548,0" class="g1_38" />
<path d="M108.5,1139.5l548,0" class="g1_38" />
<path d="M108.5,1160.5l0,-21" class="g1_38" />
<path d="M159.5,1160.5l0,-21" class="g1_38" />
<path d="M655.5,1160.5l0,-21" class="g1_38" />
<path d="M108.5,1161.5l548,0" class="g1_38" />
<path d="M108.5,1161.5l548,0" class="g1_38" />
<path d="M108.5,1183.5l0,-22" class="g1_38" />
<path d="M159.5,1183.5l0,-22" class="g1_38" />
<path d="M655.5,1183.5l0,-22" class="g1_38" />
<path d="M108.5,1183.5l548,0" class="g1_38" />
<path d="M108.5,1197.5l693,0" class="g1_38" />
</svg>