<?xml version="1.0" encoding="UTF-8" standalone="no"?>
<!DOCTYPE svg PUBLIC "-//W3C//DTD SVG 1.1//EN"
"http://www.w3.org/Graphics/SVG/1.1/DTD/svg11.dtd">
<svg version="1.1" xmlns="http://www.w3.org/2000/svg" xmlns:xlink="http://www.w3.org/1999/xlink">
<defs>
<style type="text/css"><![CDATA[
.g1_49{
fill: none;
stroke: #000000;
stroke-width: 1;
stroke-linecap: butt;
stroke-linejoin: miter;
}
]]></style>
</defs>
<path d="M108.5,81.5l693,0" class="g1_49" />
<path d="M108.5,473.5l364,0" class="g1_49" />
<path d="M108.5,473.5l364,0" class="g1_49" />
<path d="M108.5,495.5l0,-21" class="g1_49" />
<path d="M198.5,495.5l0,-21" class="g1_49" />
<path d="M472.5,495.5l0,-21" class="g1_49" />
<path d="M108.5,495.5l364,0" class="g1_49" />
<path d="M108.5,495.5l364,0" class="g1_49" />
<path d="M108.5,517.5l0,-22" class="g1_49" />
<path d="M198.5,517.5l0,-22" class="g1_49" />
<path d="M472.5,517.5l0,-22" class="g1_49" />
<path d="M108.5,517.5l364,0" class="g1_49" />
<path d="M108.5,517.5l364,0" class="g1_49" />
<path d="M108.5,539.5l0,-21" class="g1_49" />
<path d="M198.5,539.5l0,-21" class="g1_49" />
<path d="M472.5,539.5l0,-21" class="g1_49" />
<path d="M108.5,540.5l364,0" class="g1_49" />
<path d="M108.5,540.5l364,0" class="g1_49" />
<path d="M108.5,562.5l0,-22" class="g1_49" />
<path d="M198.5,562.5l0,-22" class="g1_49" />
<path d="M472.5,562.5l0,-22" class="g1_49" />
<path d="M108.5,562.5l364,0" class="g1_49" />
<path d="M108.5,562.5l364,0" class="g1_49" />
<path d="M108.5,584.5l0,-22" class="g1_49" />
<path d="M198.5,584.5l0,-22" class="g1_49" />
<path d="M472.5,584.5l0,-22" class="g1_49" />
<path d="M108.5,584.5l364,0" class="g1_49" />
<path d="M108.5,584.5l364,0" class="g1_49" />
<path d="M108.5,606.5l0,-21" class="g1_49" />
<path d="M198.5,606.5l0,-21" class="g1_49" />
<path d="M472.5,606.5l0,-21" class="g1_49" />
<path d="M108.5,607.5l364,0" class="g1_49" />
<path d="M108.5,607.5l364,0" class="g1_49" />
<path d="M108.5,629.5l0,-22" class="g1_49" />
<path d="M198.5,629.5l0,-22" class="g1_49" />
<path d="M472.5,629.5l0,-22" class="g1_49" />
<path d="M108.5,629.5l364,0" class="g1_49" />
<path d="M108.5,629.5l364,0" class="g1_49" />
<path d="M108.5,651.5l0,-22" class="g1_49" />
<path d="M198.5,651.5l0,-22" class="g1_49" />
<path d="M472.5,651.5l0,-22" class="g1_49" />
<path d="M108.5,651.5l364,0" class="g1_49" />
<path d="M108.5,651.5l364,0" class="g1_49" />
<path d="M108.5,673.5l0,-21" class="g1_49" />
<path d="M198.5,673.5l0,-21" class="g1_49" />
<path d="M472.5,673.5l0,-21" class="g1_49" />
<path d="M108.5,673.5l364,0" class="g1_49" />
<path d="M108.5,673.5l364,0" class="g1_49" />
<path d="M108.5,695.5l0,-21" class="g1_49" />
<path d="M198.5,695.5l0,-21" class="g1_49" />
<path d="M472.5,695.5l0,-21" class="g1_49" />
<path d="M108.5,696.5l364,0" class="g1_49" />
<path d="M108.5,696.5l364,0" class="g1_49" />
<path d="M108.5,989.5l143,0" class="g1_49" />
<path d="M108.5,989.5l143,0" class="g1_49" />
<path d="M108.5,1009.5l0,-20" class="g1_49" />
<path d="M144.5,1009.5l0,-20" class="g1_49" />
<path d="M251.5,1009.5l0,-20" class="g1_49" />
<path d="M108.5,1009.5l143,0" class="g1_49" />
<path d="M108.5,1009.5l143,0" class="g1_49" />
<path d="M108.5,1029.5l0,-19" class="g1_49" />
<path d="M144.5,1029.5l0,-19" class="g1_49" />
<path d="M251.5,1029.5l0,-19" class="g1_49" />
<path d="M108.5,1030.5l143,0" class="g1_49" />
<path d="M108.5,1030.5l143,0" class="g1_49" />
<path d="M108.5,1197.5l693,0" class="g1_49" />
</svg>