<?xml version="1.0" encoding="UTF-8" standalone="no"?>
<!DOCTYPE svg PUBLIC "-//W3C//DTD SVG 1.1//EN"
"http://www.w3.org/Graphics/SVG/1.1/DTD/svg11.dtd">
<svg version="1.1" xmlns="http://www.w3.org/2000/svg" xmlns:xlink="http://www.w3.org/1999/xlink">
<defs>
<style type="text/css"><![CDATA[
.g1_22{
fill: none;
stroke: #000000;
stroke-width: 1;
stroke-linecap: butt;
stroke-linejoin: miter;
}
]]></style>
</defs>
<path d="M108.5,81.5l693,0" class="g1_22" />
<path d="M108.5,220.5l456,0" class="g1_22" />
<path d="M108.5,220.5l456,0" class="g1_22" />
<path d="M108.5,242.5l0,-22" class="g1_22" />
<path d="M137.5,242.5l0,-22" class="g1_22" />
<path d="M564.5,242.5l0,-22" class="g1_22" />
<path d="M108.5,242.5l456,0" class="g1_22" />
<path d="M108.5,242.5l456,0" class="g1_22" />
<path d="M108.5,264.5l0,-22" class="g1_22" />
<path d="M137.5,264.5l0,-22" class="g1_22" />
<path d="M564.5,264.5l0,-22" class="g1_22" />
<path d="M108.5,264.5l456,0" class="g1_22" />
<path d="M108.5,264.5l456,0" class="g1_22" />
<path d="M108.5,488.5l307,0" class="g1_22" />
<path d="M108.5,488.5l307,0" class="g1_22" />
<path d="M108.5,509.5l0,-21" class="g1_22" />
<path d="M144.5,509.5l0,-21" class="g1_22" />
<path d="M415.5,509.5l0,-21" class="g1_22" />
<path d="M108.5,510.5l307,0" class="g1_22" />
<path d="M108.5,510.5l307,0" class="g1_22" />
<path d="M108.5,532.5l0,-22" class="g1_22" />
<path d="M144.5,532.5l0,-22" class="g1_22" />
<path d="M415.5,532.5l0,-22" class="g1_22" />
<path d="M108.5,532.5l307,0" class="g1_22" />
<path d="M108.5,532.5l307,0" class="g1_22" />
<path d="M108.5,554.5l0,-22" class="g1_22" />
<path d="M144.5,554.5l0,-22" class="g1_22" />
<path d="M415.5,554.5l0,-22" class="g1_22" />
<path d="M108.5,554.5l307,0" class="g1_22" />
<path d="M108.5,554.5l307,0" class="g1_22" />
<path d="M108.5,576.5l0,-22" class="g1_22" />
<path d="M144.5,576.5l0,-22" class="g1_22" />
<path d="M415.5,576.5l0,-22" class="g1_22" />
<path d="M108.5,576.5l307,0" class="g1_22" />
<path d="M108.5,576.5l307,0" class="g1_22" />
<path d="M108.5,598.5l0,-21" class="g1_22" />
<path d="M144.5,598.5l0,-21" class="g1_22" />
<path d="M415.5,598.5l0,-21" class="g1_22" />
<path d="M108.5,599.5l307,0" class="g1_22" />
<path d="M108.5,599.5l307,0" class="g1_22" />
<path d="M108.5,621.5l0,-22" class="g1_22" />
<path d="M144.5,621.5l0,-22" class="g1_22" />
<path d="M415.5,621.5l0,-22" class="g1_22" />
<path d="M108.5,621.5l307,0" class="g1_22" />
<path d="M108.5,621.5l307,0" class="g1_22" />
<path d="M108.5,643.5l0,-22" class="g1_22" />
<path d="M144.5,643.5l0,-22" class="g1_22" />
<path d="M415.5,643.5l0,-22" class="g1_22" />
<path d="M108.5,643.5l307,0" class="g1_22" />
<path d="M108.5,643.5l307,0" class="g1_22" />
<path d="M108.5,974.5l464,0" class="g1_22" />
<path d="M108.5,974.5l464,0" class="g1_22" />
<path d="M108.5,995.5l0,-21" class="g1_22" />
<path d="M145.5,995.5l0,-21" class="g1_22" />
<path d="M572.5,995.5l0,-21" class="g1_22" />
<path d="M108.5,996.5l464,0" class="g1_22" />
<path d="M108.5,996.5l464,0" class="g1_22" />
<path d="M108.5,1017.5l0,-21" class="g1_22" />
<path d="M145.5,1017.5l0,-21" class="g1_22" />
<path d="M572.5,1017.5l0,-21" class="g1_22" />
<path d="M108.5,1018.5l464,0" class="g1_22" />
<path d="M108.5,1018.5l464,0" class="g1_22" />
<path d="M108.5,1040.5l0,-22" class="g1_22" />
<path d="M145.5,1040.5l0,-22" class="g1_22" />
<path d="M572.5,1040.5l0,-22" class="g1_22" />
<path d="M108.5,1040.5l464,0" class="g1_22" />
<path d="M108.5,1040.5l464,0" class="g1_22" />
<path d="M108.5,1062.5l0,-22" class="g1_22" />
<path d="M145.5,1062.5l0,-22" class="g1_22" />
<path d="M572.5,1062.5l0,-22" class="g1_22" />
<path d="M108.5,1062.5l464,0" class="g1_22" />
<path d="M108.5,1062.5l464,0" class="g1_22" />
<path d="M108.5,1084.5l0,-21" class="g1_22" />
<path d="M145.5,1084.5l0,-21" class="g1_22" />
<path d="M572.5,1084.5l0,-21" class="g1_22" />
<path d="M108.5,1084.5l464,0" class="g1_22" />
<path d="M108.5,1084.5l464,0" class="g1_22" />
<path d="M108.5,1106.5l0,-21" class="g1_22" />
<path d="M145.5,1106.5l0,-21" class="g1_22" />
<path d="M572.5,1106.5l0,-21" class="g1_22" />
<path d="M108.5,1107.5l464,0" class="g1_22" />
<path d="M108.5,1107.5l464,0" class="g1_22" />
<path d="M108.5,1129.5l0,-22" class="g1_22" />
<path d="M145.5,1129.5l0,-22" class="g1_22" />
<path d="M572.5,1129.5l0,-22" class="g1_22" />
<path d="M108.5,1129.5l464,0" class="g1_22" />
<path d="M108.5,1129.5l464,0" class="g1_22" />
<path d="M108.5,1151.5l0,-22" class="g1_22" />
<path d="M145.5,1151.5l0,-22" class="g1_22" />
<path d="M572.5,1151.5l0,-22" class="g1_22" />
<path d="M108.5,1151.5l464,0" class="g1_22" />
<path d="M108.5,1151.5l464,0" class="g1_22" />
<path d="M108.5,1173.5l0,-22" class="g1_22" />
<path d="M145.5,1173.5l0,-22" class="g1_22" />
<path d="M572.5,1173.5l0,-22" class="g1_22" />
<path d="M108.5,1174.5l464,0" class="g1_22" />
<path d="M108.5,1174.5l464,0" class="g1_22" />
<path d="M108.5,1197.5l693,0" class="g1_22" />
</svg>