<?xml version="1.0" encoding="UTF-8" standalone="no"?>
<!DOCTYPE svg PUBLIC "-//W3C//DTD SVG 1.1//EN"
"http://www.w3.org/Graphics/SVG/1.1/DTD/svg11.dtd">
<svg version="1.1" xmlns="http://www.w3.org/2000/svg" xmlns:xlink="http://www.w3.org/1999/xlink">
<defs>
<style type="text/css"><![CDATA[
.g1_24{
fill: none;
stroke: #000000;
stroke-width: 1;
stroke-linecap: butt;
stroke-linejoin: miter;
}
]]></style>
</defs>
<path d="M108.5,81.5l693,0" class="g1_24" />
<path d="M108.5,135.5l704,0" class="g1_24" />
<path d="M108.5,135.5l704,0" class="g1_24" />
<path d="M108.5,157.5l0,-22" class="g1_24" />
<path d="M140.5,157.5l0,-22" class="g1_24" />
<path d="M812.5,157.5l0,-22" class="g1_24" />
<path d="M108.5,157.5l704,0" class="g1_24" />
<path d="M108.5,157.5l704,0" class="g1_24" />
<path d="M108.5,179.5l0,-22" class="g1_24" />
<path d="M140.5,179.5l0,-22" class="g1_24" />
<path d="M812.5,179.5l0,-22" class="g1_24" />
<path d="M108.5,179.5l704,0" class="g1_24" />
<path d="M108.5,179.5l704,0" class="g1_24" />
<path d="M108.5,201.5l0,-21" class="g1_24" />
<path d="M140.5,201.5l0,-21" class="g1_24" />
<path d="M812.5,201.5l0,-21" class="g1_24" />
<path d="M108.5,202.5l704,0" class="g1_24" />
<path d="M108.5,202.5l704,0" class="g1_24" />
<path d="M108.5,511.5l456,0" class="g1_24" />
<path d="M108.5,511.5l456,0" class="g1_24" />
<path d="M108.5,533.5l0,-21" class="g1_24" />
<path d="M137.5,533.5l0,-21" class="g1_24" />
<path d="M564.5,533.5l0,-21" class="g1_24" />
<path d="M108.5,533.5l456,0" class="g1_24" />
<path d="M108.5,533.5l456,0" class="g1_24" />
<path d="M108.5,757.5l246,0" class="g1_24" />
<path d="M108.5,757.5l246,0" class="g1_24" />
<path d="M108.5,779.5l0,-22" class="g1_24" />
<path d="M147.5,779.5l0,-22" class="g1_24" />
<path d="M354.5,779.5l0,-22" class="g1_24" />
<path d="M108.5,779.5l246,0" class="g1_24" />
<path d="M108.5,779.5l246,0" class="g1_24" />
<path d="M108.5,801.5l0,-22" class="g1_24" />
<path d="M147.5,801.5l0,-22" class="g1_24" />
<path d="M354.5,801.5l0,-22" class="g1_24" />
<path d="M108.5,801.5l246,0" class="g1_24" />
<path d="M108.5,801.5l246,0" class="g1_24" />
<path d="M108.5,823.5l0,-21" class="g1_24" />
<path d="M147.5,823.5l0,-21" class="g1_24" />
<path d="M354.5,823.5l0,-21" class="g1_24" />
<path d="M108.5,823.5l246,0" class="g1_24" />
<path d="M108.5,823.5l246,0" class="g1_24" />
<path d="M108.5,846.5l0,-22" class="g1_24" />
<path d="M147.5,846.5l0,-22" class="g1_24" />
<path d="M354.5,846.5l0,-22" class="g1_24" />
<path d="M108.5,846.5l246,0" class="g1_24" />
<path d="M108.5,846.5l246,0" class="g1_24" />
<path d="M108.5,867.5l0,-21" class="g1_24" />
<path d="M147.5,867.5l0,-21" class="g1_24" />
<path d="M354.5,867.5l0,-21" class="g1_24" />
<path d="M108.5,868.5l246,0" class="g1_24" />
<path d="M108.5,868.5l246,0" class="g1_24" />
<path d="M108.5,1053.5l509,0" class="g1_24" />
<path d="M108.5,1053.5l509,0" class="g1_24" />
<path d="M108.5,1075.5l0,-21" class="g1_24" />
<path d="M140.5,1075.5l0,-21" class="g1_24" />
<path d="M616.5,1075.5l0,-21" class="g1_24" />
<path d="M108.5,1076.5l509,0" class="g1_24" />
<path d="M108.5,1076.5l509,0" class="g1_24" />
<path d="M108.5,1097.5l0,-21" class="g1_24" />
<path d="M140.5,1097.5l0,-21" class="g1_24" />
<path d="M616.5,1097.5l0,-21" class="g1_24" />
<path d="M108.5,1098.5l509,0" class="g1_24" />
<path d="M108.5,1098.5l509,0" class="g1_24" />
<path d="M108.5,1197.5l693,0" class="g1_24" />
</svg>