<?xml version="1.0" encoding="UTF-8" standalone="no"?>
<!DOCTYPE svg PUBLIC "-//W3C//DTD SVG 1.1//EN"
"http://www.w3.org/Graphics/SVG/1.1/DTD/svg11.dtd">
<svg version="1.1" xmlns="http://www.w3.org/2000/svg" xmlns:xlink="http://www.w3.org/1999/xlink">
<defs>
<style type="text/css"><![CDATA[
.g1_45{
fill: none;
stroke: #000000;
stroke-width: 1;
stroke-linecap: butt;
stroke-linejoin: miter;
}
]]></style>
</defs>
<path d="M108.5,81.5l693,0" class="g1_45" />
<path d="M108.5,337.5l386,0" class="g1_45" />
<path d="M108.5,337.5l386,0" class="g1_45" />
<path d="M108.5,359.5l0,-22" class="g1_45" />
<path d="M164.5,359.5l0,-22" class="g1_45" />
<path d="M493.5,359.5l0,-22" class="g1_45" />
<path d="M108.5,359.5l386,0" class="g1_45" />
<path d="M108.5,359.5l386,0" class="g1_45" />
<path d="M108.5,379.5l0,-20" class="g1_45" />
<path d="M164.5,379.5l0,-20" class="g1_45" />
<path d="M493.5,379.5l0,-20" class="g1_45" />
<path d="M108.5,380.5l386,0" class="g1_45" />
<path d="M108.5,380.5l386,0" class="g1_45" />
<path d="M108.5,672.5l321,0" class="g1_45" />
<path d="M108.5,672.5l321,0" class="g1_45" />
<path d="M108.5,693.5l0,-21" class="g1_45" />
<path d="M189.5,693.5l0,-21" class="g1_45" />
<path d="M429.5,693.5l0,-21" class="g1_45" />
<path d="M108.5,694.5l321,0" class="g1_45" />
<path d="M108.5,694.5l321,0" class="g1_45" />
<path d="M108.5,716.5l0,-22" class="g1_45" />
<path d="M189.5,716.5l0,-22" class="g1_45" />
<path d="M429.5,716.5l0,-22" class="g1_45" />
<path d="M108.5,716.5l321,0" class="g1_45" />
<path d="M108.5,716.5l321,0" class="g1_45" />
<path d="M108.5,738.5l0,-22" class="g1_45" />
<path d="M189.5,738.5l0,-22" class="g1_45" />
<path d="M429.5,738.5l0,-22" class="g1_45" />
<path d="M108.5,738.5l321,0" class="g1_45" />
<path d="M108.5,738.5l321,0" class="g1_45" />
<path d="M108.5,760.5l0,-21" class="g1_45" />
<path d="M189.5,760.5l0,-21" class="g1_45" />
<path d="M429.5,760.5l0,-21" class="g1_45" />
<path d="M108.5,761.5l321,0" class="g1_45" />
<path d="M108.5,761.5l321,0" class="g1_45" />
<path d="M108.5,1142.5l184,0" class="g1_45" />
<path d="M108.5,1142.5l184,0" class="g1_45" />
<path d="M108.5,1164.5l0,-21" class="g1_45" />
<path d="M163.5,1164.5l0,-21" class="g1_45" />
<path d="M292.5,1164.5l0,-21" class="g1_45" />
<path d="M108.5,1164.5l184,0" class="g1_45" />
<path d="M108.5,1164.5l184,0" class="g1_45" />
<path d="M108.5,1185.5l0,-20" class="g1_45" />
<path d="M163.5,1185.5l0,-20" class="g1_45" />
<path d="M292.5,1185.5l0,-20" class="g1_45" />
<path d="M108.5,1185.5l184,0" class="g1_45" />
<path d="M108.5,1185.5l184,0" class="g1_45" />
<path d="M108.5,1207.5l0,-22" class="g1_45" />
<path d="M163.5,1207.5l0,-22" class="g1_45" />
<path d="M292.5,1207.5l0,-22" class="g1_45" />
<path d="M108.5,1207.5l184,0" class="g1_45" />
<path d="M108.5,1207.5l184,0" class="g1_45" />
<path d="M108.5,1227.5l0,-20" class="g1_45" />
<path d="M163.5,1227.5l0,-20" class="g1_45" />
<path d="M292.5,1227.5l0,-20" class="g1_45" />
<path d="M108.5,1228.5l184,0" class="g1_45" />
<path d="M108.5,1228.5l184,0" class="g1_45" />
<path d="M108.5,1197.5l693,0" class="g1_45" />
</svg>