<?xml version="1.0" encoding="UTF-8" standalone="no"?>
<!DOCTYPE svg PUBLIC "-//W3C//DTD SVG 1.1//EN"
"http://www.w3.org/Graphics/SVG/1.1/DTD/svg11.dtd">
<svg version="1.1" xmlns="http://www.w3.org/2000/svg" xmlns:xlink="http://www.w3.org/1999/xlink">
<defs>
<style type="text/css"><![CDATA[
.g1_39{
fill: none;
stroke: #000000;
stroke-width: 1;
stroke-linecap: butt;
stroke-linejoin: miter;
}
]]></style>
</defs>
<path d="M108.5,81.5l693,0" class="g1_39" />
<path d="M108.5,135.5l548,0" class="g1_39" />
<path d="M108.5,135.5l548,0" class="g1_39" />
<path d="M108.5,135.5l548,0" class="g1_39" />
<path d="M108.5,157.5l0,-22" class="g1_39" />
<path d="M159.5,157.5l0,-22" class="g1_39" />
<path d="M655.5,157.5l0,-22" class="g1_39" />
<path d="M108.5,157.5l548,0" class="g1_39" />
<path d="M108.5,157.5l548,0" class="g1_39" />
<path d="M108.5,181.5l0,-24" class="g1_39" />
<path d="M159.5,181.5l0,-24" class="g1_39" />
<path d="M655.5,181.5l0,-24" class="g1_39" />
<path d="M108.5,181.5l548,0" class="g1_39" />
<path d="M108.5,181.5l548,0" class="g1_39" />
<path d="M108.5,203.5l0,-21" class="g1_39" />
<path d="M159.5,203.5l0,-21" class="g1_39" />
<path d="M655.5,203.5l0,-21" class="g1_39" />
<path d="M108.5,204.5l548,0" class="g1_39" />
<path d="M108.5,204.5l548,0" class="g1_39" />
<path d="M108.5,226.5l0,-22" class="g1_39" />
<path d="M159.5,226.5l0,-22" class="g1_39" />
<path d="M655.5,226.5l0,-22" class="g1_39" />
<path d="M108.5,226.5l548,0" class="g1_39" />
<path d="M108.5,226.5l548,0" class="g1_39" />
<path d="M108.5,248.5l0,-22" class="g1_39" />
<path d="M159.5,248.5l0,-22" class="g1_39" />
<path d="M655.5,248.5l0,-22" class="g1_39" />
<path d="M108.5,248.5l548,0" class="g1_39" />
<path d="M108.5,248.5l548,0" class="g1_39" />
<path d="M108.5,579.5l367,0" class="g1_39" />
<path d="M108.5,579.5l367,0" class="g1_39" />
<path d="M108.5,601.5l0,-21" class="g1_39" />
<path d="M145.5,601.5l0,-21" class="g1_39" />
<path d="M475.5,601.5l0,-21" class="g1_39" />
<path d="M108.5,601.5l367,0" class="g1_39" />
<path d="M108.5,601.5l367,0" class="g1_39" />
<path d="M108.5,623.5l0,-21" class="g1_39" />
<path d="M145.5,623.5l0,-21" class="g1_39" />
<path d="M475.5,623.5l0,-21" class="g1_39" />
<path d="M108.5,624.5l367,0" class="g1_39" />
<path d="M108.5,624.5l367,0" class="g1_39" />
<path d="M108.5,645.5l0,-21" class="g1_39" />
<path d="M145.5,645.5l0,-21" class="g1_39" />
<path d="M475.5,645.5l0,-21" class="g1_39" />
<path d="M108.5,646.5l367,0" class="g1_39" />
<path d="M108.5,646.5l367,0" class="g1_39" />
<path d="M108.5,668.5l0,-22" class="g1_39" />
<path d="M145.5,668.5l0,-22" class="g1_39" />
<path d="M475.5,668.5l0,-22" class="g1_39" />
<path d="M108.5,668.5l367,0" class="g1_39" />
<path d="M108.5,668.5l367,0" class="g1_39" />
<path d="M108.5,690.5l0,-22" class="g1_39" />
<path d="M145.5,690.5l0,-22" class="g1_39" />
<path d="M475.5,690.5l0,-22" class="g1_39" />
<path d="M108.5,690.5l367,0" class="g1_39" />
<path d="M108.5,690.5l367,0" class="g1_39" />
<path d="M108.5,712.5l0,-21" class="g1_39" />
<path d="M145.5,712.5l0,-21" class="g1_39" />
<path d="M475.5,712.5l0,-21" class="g1_39" />
<path d="M108.5,712.5l367,0" class="g1_39" />
<path d="M108.5,712.5l367,0" class="g1_39" />
<path d="M108.5,737.5l0,-24" class="g1_39" />
<path d="M145.5,737.5l0,-24" class="g1_39" />
<path d="M475.5,737.5l0,-24" class="g1_39" />
<path d="M108.5,737.5l367,0" class="g1_39" />
<path d="M108.5,737.5l367,0" class="g1_39" />
<path d="M108.5,759.5l0,-22" class="g1_39" />
<path d="M145.5,759.5l0,-22" class="g1_39" />
<path d="M475.5,759.5l0,-22" class="g1_39" />
<path d="M108.5,759.5l367,0" class="g1_39" />
<path d="M108.5,759.5l367,0" class="g1_39" />
<path d="M108.5,1197.5l693,0" class="g1_39" />
</svg>