<?xml version="1.0" encoding="UTF-8" standalone="no"?>
<!DOCTYPE svg PUBLIC "-//W3C//DTD SVG 1.1//EN"
"http://www.w3.org/Graphics/SVG/1.1/DTD/svg11.dtd">
<svg version="1.1" xmlns="http://www.w3.org/2000/svg" xmlns:xlink="http://www.w3.org/1999/xlink">
<defs>
<style type="text/css"><![CDATA[
.g1_30{
fill: none;
stroke: #000000;
stroke-width: 1;
stroke-linecap: butt;
stroke-linejoin: miter;
}
]]></style>
</defs>
<path d="M108.5,81.5l693,0" class="g1_30" />
<path d="M108.5,208.5l691,0" class="g1_30" />
<path d="M108.5,208.5l691,0" class="g1_30" />
<path d="M108.5,230.5l0,-22" class="g1_30" />
<path d="M195.5,230.5l0,-22" class="g1_30" />
<path d="M798.5,230.5l0,-22" class="g1_30" />
<path d="M108.5,230.5l691,0" class="g1_30" />
<path d="M108.5,230.5l691,0" class="g1_30" />
<path d="M108.5,252.5l0,-22" class="g1_30" />
<path d="M195.5,252.5l0,-22" class="g1_30" />
<path d="M798.5,252.5l0,-22" class="g1_30" />
<path d="M108.5,252.5l691,0" class="g1_30" />
<path d="M108.5,252.5l691,0" class="g1_30" />
<path d="M108.5,274.5l0,-22" class="g1_30" />
<path d="M195.5,274.5l0,-22" class="g1_30" />
<path d="M798.5,274.5l0,-22" class="g1_30" />
<path d="M108.5,274.5l691,0" class="g1_30" />
<path d="M108.5,274.5l691,0" class="g1_30" />
<path d="M108.5,296.5l0,-22" class="g1_30" />
<path d="M195.5,296.5l0,-22" class="g1_30" />
<path d="M798.5,296.5l0,-22" class="g1_30" />
<path d="M108.5,296.5l691,0" class="g1_30" />
<path d="M108.5,296.5l691,0" class="g1_30" />
<path d="M108.5,318.5l0,-21" class="g1_30" />
<path d="M195.5,318.5l0,-21" class="g1_30" />
<path d="M798.5,318.5l0,-21" class="g1_30" />
<path d="M108.5,318.5l691,0" class="g1_30" />
<path d="M108.5,318.5l691,0" class="g1_30" />
<path d="M108.5,340.5l0,-21" class="g1_30" />
<path d="M195.5,340.5l0,-21" class="g1_30" />
<path d="M798.5,340.5l0,-21" class="g1_30" />
<path d="M108.5,341.5l691,0" class="g1_30" />
<path d="M108.5,341.5l691,0" class="g1_30" />
<path d="M108.5,362.5l0,-21" class="g1_30" />
<path d="M195.5,362.5l0,-21" class="g1_30" />
<path d="M798.5,362.5l0,-21" class="g1_30" />
<path d="M108.5,363.5l691,0" class="g1_30" />
<path d="M108.5,363.5l691,0" class="g1_30" />
<path d="M108.5,385.5l0,-22" class="g1_30" />
<path d="M195.5,385.5l0,-22" class="g1_30" />
<path d="M798.5,385.5l0,-22" class="g1_30" />
<path d="M108.5,385.5l691,0" class="g1_30" />
<path d="M108.5,385.5l691,0" class="g1_30" />
<path d="M108.5,409.5l0,-24" class="g1_30" />
<path d="M195.5,409.5l0,-24" class="g1_30" />
<path d="M798.5,409.5l0,-24" class="g1_30" />
<path d="M108.5,410.5l691,0" class="g1_30" />
<path d="M108.5,410.5l691,0" class="g1_30" />
<path d="M108.5,431.5l0,-21" class="g1_30" />
<path d="M195.5,431.5l0,-21" class="g1_30" />
<path d="M798.5,431.5l0,-21" class="g1_30" />
<path d="M108.5,431.5l691,0" class="g1_30" />
<path d="M108.5,431.5l691,0" class="g1_30" />
<path d="M108.5,454.5l0,-22" class="g1_30" />
<path d="M195.5,454.5l0,-22" class="g1_30" />
<path d="M798.5,454.5l0,-22" class="g1_30" />
<path d="M108.5,454.5l691,0" class="g1_30" />
<path d="M108.5,454.5l691,0" class="g1_30" />
<path d="M108.5,475.5l0,-21" class="g1_30" />
<path d="M195.5,475.5l0,-21" class="g1_30" />
<path d="M798.5,475.5l0,-21" class="g1_30" />
<path d="M108.5,476.5l691,0" class="g1_30" />
<path d="M108.5,476.5l691,0" class="g1_30" />
<path d="M108.5,500.5l0,-24" class="g1_30" />
<path d="M195.5,500.5l0,-24" class="g1_30" />
<path d="M798.5,500.5l0,-24" class="g1_30" />
<path d="M108.5,500.5l691,0" class="g1_30" />
<path d="M108.5,500.5l691,0" class="g1_30" />
<path d="M108.5,868.5l615,0" class="g1_30" />
<path d="M108.5,868.5l615,0" class="g1_30" />
<path d="M108.5,890.5l0,-22" class="g1_30" />
<path d="M145.5,890.5l0,-22" class="g1_30" />
<path d="M722.5,890.5l0,-22" class="g1_30" />
<path d="M108.5,890.5l615,0" class="g1_30" />
<path d="M108.5,890.5l615,0" class="g1_30" />
<path d="M108.5,912.5l0,-22" class="g1_30" />
<path d="M145.5,912.5l0,-22" class="g1_30" />
<path d="M722.5,912.5l0,-22" class="g1_30" />
<path d="M108.5,912.5l615,0" class="g1_30" />
<path d="M108.5,912.5l615,0" class="g1_30" />
<path d="M108.5,934.5l0,-22" class="g1_30" />
<path d="M145.5,934.5l0,-22" class="g1_30" />
<path d="M722.5,934.5l0,-22" class="g1_30" />
<path d="M108.5,934.5l615,0" class="g1_30" />
<path d="M108.5,934.5l615,0" class="g1_30" />
<path d="M108.5,956.5l0,-22" class="g1_30" />
<path d="M145.5,956.5l0,-22" class="g1_30" />
<path d="M722.5,956.5l0,-22" class="g1_30" />
<path d="M108.5,956.5l615,0" class="g1_30" />
<path d="M108.5,956.5l615,0" class="g1_30" />
<path d="M108.5,978.5l0,-21" class="g1_30" />
<path d="M145.5,978.5l0,-21" class="g1_30" />
<path d="M722.5,978.5l0,-21" class="g1_30" />
<path d="M108.5,978.5l615,0" class="g1_30" />
<path d="M108.5,978.5l615,0" class="g1_30" />
<path d="M108.5,1000.5l0,-21" class="g1_30" />
<path d="M145.5,1000.5l0,-21" class="g1_30" />
<path d="M722.5,1000.5l0,-21" class="g1_30" />
<path d="M108.5,1000.5l615,0" class="g1_30" />
<path d="M108.5,1000.5l615,0" class="g1_30" />
<path d="M108.5,1022.5l0,-21" class="g1_30" />
<path d="M145.5,1022.5l0,-21" class="g1_30" />
<path d="M722.5,1022.5l0,-21" class="g1_30" />
<path d="M108.5,1023.5l615,0" class="g1_30" />
<path d="M108.5,1023.5l615,0" class="g1_30" />
<path d="M108.5,1045.5l0,-22" class="g1_30" />
<path d="M145.5,1045.5l0,-22" class="g1_30" />
<path d="M722.5,1045.5l0,-22" class="g1_30" />
<path d="M108.5,1045.5l615,0" class="g1_30" />
<path d="M108.5,1045.5l615,0" class="g1_30" />
<path d="M108.5,1069.5l0,-24" class="g1_30" />
<path d="M145.5,1069.5l0,-24" class="g1_30" />
<path d="M722.5,1069.5l0,-24" class="g1_30" />
<path d="M108.5,1069.5l615,0" class="g1_30" />
<path d="M108.5,1069.5l615,0" class="g1_30" />
<path d="M108.5,1091.5l0,-21" class="g1_30" />
<path d="M145.5,1091.5l0,-21" class="g1_30" />
<path d="M722.5,1091.5l0,-21" class="g1_30" />
<path d="M108.5,1091.5l615,0" class="g1_30" />
<path d="M108.5,1091.5l615,0" class="g1_30" />
<path d="M108.5,1197.5l693,0" class="g1_30" />
</svg>