<?xml version="1.0" encoding="UTF-8" standalone="no"?>
<!DOCTYPE svg PUBLIC "-//W3C//DTD SVG 1.1//EN"
"http://www.w3.org/Graphics/SVG/1.1/DTD/svg11.dtd">
<svg version="1.1" xmlns="http://www.w3.org/2000/svg" xmlns:xlink="http://www.w3.org/1999/xlink">
<defs>
<style type="text/css"><![CDATA[
.g1_44{
fill: none;
stroke: #000000;
stroke-width: 1;
stroke-linecap: butt;
stroke-linejoin: miter;
}
]]></style>
</defs>
<path d="M108.5,81.5l693,0" class="g1_44" />
<path d="M108.5,604.5l550,0" class="g1_44" />
<path d="M108.5,604.5l550,0" class="g1_44" />
<path d="M108.5,625.5l0,-21" class="g1_44" />
<path d="M140.5,625.5l0,-21" class="g1_44" />
<path d="M658.5,625.5l0,-21" class="g1_44" />
<path d="M108.5,626.5l550,0" class="g1_44" />
<path d="M108.5,626.5l550,0" class="g1_44" />
<path d="M108.5,645.5l0,-19" class="g1_44" />
<path d="M140.5,645.5l0,-19" class="g1_44" />
<path d="M658.5,645.5l0,-19" class="g1_44" />
<path d="M108.5,646.5l550,0" class="g1_44" />
<path d="M108.5,646.5l550,0" class="g1_44" />
<path d="M108.5,668.5l0,-22" class="g1_44" />
<path d="M140.5,668.5l0,-22" class="g1_44" />
<path d="M658.5,668.5l0,-22" class="g1_44" />
<path d="M108.5,668.5l550,0" class="g1_44" />
<path d="M108.5,668.5l550,0" class="g1_44" />
<path d="M108.5,690.5l0,-22" class="g1_44" />
<path d="M140.5,690.5l0,-22" class="g1_44" />
<path d="M658.5,690.5l0,-22" class="g1_44" />
<path d="M108.5,690.5l550,0" class="g1_44" />
<path d="M108.5,690.5l550,0" class="g1_44" />
<path d="M108.5,1039.5l550,0" class="g1_44" />
<path d="M108.5,1039.5l550,0" class="g1_44" />
<path d="M108.5,1061.5l0,-21" class="g1_44" />
<path d="M140.5,1061.5l0,-21" class="g1_44" />
<path d="M658.5,1061.5l0,-21" class="g1_44" />
<path d="M108.5,1061.5l550,0" class="g1_44" />
<path d="M108.5,1061.5l550,0" class="g1_44" />
<path d="M108.5,1081.5l0,-19" class="g1_44" />
<path d="M140.5,1081.5l0,-19" class="g1_44" />
<path d="M658.5,1081.5l0,-19" class="g1_44" />
<path d="M108.5,1081.5l550,0" class="g1_44" />
<path d="M108.5,1081.5l550,0" class="g1_44" />
<path d="M108.5,1103.5l0,-21" class="g1_44" />
<path d="M140.5,1103.5l0,-21" class="g1_44" />
<path d="M658.5,1103.5l0,-21" class="g1_44" />
<path d="M108.5,1104.5l550,0" class="g1_44" />
<path d="M108.5,1104.5l550,0" class="g1_44" />
<path d="M108.5,1124.5l0,-20" class="g1_44" />
<path d="M140.5,1124.5l0,-20" class="g1_44" />
<path d="M658.5,1124.5l0,-20" class="g1_44" />
<path d="M108.5,1124.5l550,0" class="g1_44" />
<path d="M108.5,1124.5l550,0" class="g1_44" />
<path d="M108.5,1197.5l693,0" class="g1_44" />
</svg>