<?xml version="1.0" encoding="UTF-8" standalone="no"?>
<!DOCTYPE svg PUBLIC "-//W3C//DTD SVG 1.1//EN"
"http://www.w3.org/Graphics/SVG/1.1/DTD/svg11.dtd">
<svg version="1.1" xmlns="http://www.w3.org/2000/svg" xmlns:xlink="http://www.w3.org/1999/xlink">
<defs>
<style type="text/css"><![CDATA[
.g1_33{
fill: none;
stroke: #000000;
stroke-width: 1;
stroke-linecap: butt;
stroke-linejoin: miter;
}
]]></style>
</defs>
<path d="M108.5,81.5l693,0" class="g1_33" />
<path d="M108.5,135.5l353,0" class="g1_33" />
<path d="M108.5,135.5l353,0" class="g1_33" />
<path d="M108.5,156.5l0,-21" class="g1_33" />
<path d="M144.5,156.5l0,-21" class="g1_33" />
<path d="M460.5,156.5l0,-21" class="g1_33" />
<path d="M108.5,157.5l353,0" class="g1_33" />
<path d="M108.5,157.5l353,0" class="g1_33" />
<path d="M108.5,179.5l0,-22" class="g1_33" />
<path d="M144.5,179.5l0,-22" class="g1_33" />
<path d="M460.5,179.5l0,-22" class="g1_33" />
<path d="M108.5,179.5l353,0" class="g1_33" />
<path d="M108.5,179.5l353,0" class="g1_33" />
<path d="M108.5,200.5l0,-21" class="g1_33" />
<path d="M144.5,200.5l0,-21" class="g1_33" />
<path d="M460.5,200.5l0,-21" class="g1_33" />
<path d="M108.5,201.5l353,0" class="g1_33" />
<path d="M108.5,201.5l353,0" class="g1_33" />
<path d="M108.5,225.5l0,-24" class="g1_33" />
<path d="M144.5,225.5l0,-24" class="g1_33" />
<path d="M460.5,225.5l0,-24" class="g1_33" />
<path d="M108.5,225.5l353,0" class="g1_33" />
<path d="M108.5,225.5l353,0" class="g1_33" />
<path d="M108.5,497.5l247,0" class="g1_33" />
<path d="M108.5,497.5l247,0" class="g1_33" />
<path d="M108.5,519.5l0,-21" class="g1_33" />
<path d="M146.5,519.5l0,-21" class="g1_33" />
<path d="M355.5,519.5l0,-21" class="g1_33" />
<path d="M108.5,520.5l247,0" class="g1_33" />
<path d="M108.5,520.5l247,0" class="g1_33" />
<path d="M108.5,541.5l0,-21" class="g1_33" />
<path d="M146.5,541.5l0,-21" class="g1_33" />
<path d="M355.5,541.5l0,-21" class="g1_33" />
<path d="M108.5,541.5l247,0" class="g1_33" />
<path d="M108.5,541.5l247,0" class="g1_33" />
<path d="M108.5,563.5l0,-21" class="g1_33" />
<path d="M146.5,563.5l0,-21" class="g1_33" />
<path d="M355.5,563.5l0,-21" class="g1_33" />
<path d="M108.5,564.5l247,0" class="g1_33" />
<path d="M108.5,564.5l247,0" class="g1_33" />
<path d="M108.5,838.5l622,0" class="g1_33" />
<path d="M108.5,838.5l622,0" class="g1_33" />
<path d="M108.5,860.5l0,-21" class="g1_33" />
<path d="M153.5,860.5l0,-21" class="g1_33" />
<path d="M730.5,860.5l0,-21" class="g1_33" />
<path d="M108.5,860.5l622,0" class="g1_33" />
<path d="M108.5,860.5l622,0" class="g1_33" />
<path d="M108.5,882.5l0,-21" class="g1_33" />
<path d="M153.5,882.5l0,-21" class="g1_33" />
<path d="M730.5,882.5l0,-21" class="g1_33" />
<path d="M108.5,883.5l622,0" class="g1_33" />
<path d="M108.5,883.5l622,0" class="g1_33" />
<path d="M108.5,905.5l0,-22" class="g1_33" />
<path d="M153.5,905.5l0,-22" class="g1_33" />
<path d="M730.5,905.5l0,-22" class="g1_33" />
<path d="M108.5,905.5l622,0" class="g1_33" />
<path d="M108.5,905.5l622,0" class="g1_33" />
<path d="M108.5,927.5l0,-22" class="g1_33" />
<path d="M153.5,927.5l0,-22" class="g1_33" />
<path d="M730.5,927.5l0,-22" class="g1_33" />
<path d="M108.5,927.5l622,0" class="g1_33" />
<path d="M108.5,927.5l622,0" class="g1_33" />
<path d="M108.5,949.5l0,-22" class="g1_33" />
<path d="M153.5,949.5l0,-22" class="g1_33" />
<path d="M730.5,949.5l0,-22" class="g1_33" />
<path d="M108.5,950.5l622,0" class="g1_33" />
<path d="M108.5,950.5l622,0" class="g1_33" />
<path d="M108.5,1197.5l693,0" class="g1_33" />
</svg>