<?xml version="1.0" encoding="UTF-8" standalone="no"?>
<!DOCTYPE svg PUBLIC "-//W3C//DTD SVG 1.1//EN"
"http://www.w3.org/Graphics/SVG/1.1/DTD/svg11.dtd">
<svg version="1.1" xmlns="http://www.w3.org/2000/svg" xmlns:xlink="http://www.w3.org/1999/xlink">
<defs>
<style type="text/css"><![CDATA[
.g1_31{
fill: none;
stroke: #000000;
stroke-width: 1;
stroke-linecap: butt;
stroke-linejoin: miter;
}
]]></style>
</defs>
<path d="M108.5,81.5l693,0" class="g1_31" />
<path d="M108.5,318.5l319,0" class="g1_31" />
<path d="M108.5,318.5l319,0" class="g1_31" />
<path d="M108.5,340.5l0,-21" class="g1_31" />
<path d="M136.5,340.5l0,-21" class="g1_31" />
<path d="M426.5,340.5l0,-21" class="g1_31" />
<path d="M108.5,340.5l319,0" class="g1_31" />
<path d="M108.5,340.5l319,0" class="g1_31" />
<path d="M108.5,362.5l0,-21" class="g1_31" />
<path d="M136.5,362.5l0,-21" class="g1_31" />
<path d="M426.5,362.5l0,-21" class="g1_31" />
<path d="M108.5,363.5l319,0" class="g1_31" />
<path d="M108.5,363.5l319,0" class="g1_31" />
<path d="M108.5,385.5l0,-22" class="g1_31" />
<path d="M136.5,385.5l0,-22" class="g1_31" />
<path d="M426.5,385.5l0,-22" class="g1_31" />
<path d="M108.5,385.5l319,0" class="g1_31" />
<path d="M108.5,385.5l319,0" class="g1_31" />
<path d="M108.5,678.5l358,0" class="g1_31" />
<path d="M108.5,678.5l358,0" class="g1_31" />
<path d="M108.5,700.5l0,-22" class="g1_31" />
<path d="M145.5,700.5l0,-22" class="g1_31" />
<path d="M466.5,700.5l0,-22" class="g1_31" />
<path d="M108.5,700.5l358,0" class="g1_31" />
<path d="M108.5,700.5l358,0" class="g1_31" />
<path d="M108.5,722.5l0,-22" class="g1_31" />
<path d="M145.5,722.5l0,-22" class="g1_31" />
<path d="M466.5,722.5l0,-22" class="g1_31" />
<path d="M108.5,722.5l358,0" class="g1_31" />
<path d="M108.5,722.5l358,0" class="g1_31" />
<path d="M108.5,744.5l0,-22" class="g1_31" />
<path d="M145.5,744.5l0,-22" class="g1_31" />
<path d="M466.5,744.5l0,-22" class="g1_31" />
<path d="M108.5,744.5l358,0" class="g1_31" />
<path d="M108.5,744.5l358,0" class="g1_31" />
<path d="M108.5,766.5l0,-22" class="g1_31" />
<path d="M145.5,766.5l0,-22" class="g1_31" />
<path d="M466.5,766.5l0,-22" class="g1_31" />
<path d="M108.5,766.5l358,0" class="g1_31" />
<path d="M108.5,766.5l358,0" class="g1_31" />
<path d="M108.5,788.5l0,-22" class="g1_31" />
<path d="M145.5,788.5l0,-22" class="g1_31" />
<path d="M466.5,788.5l0,-22" class="g1_31" />
<path d="M108.5,788.5l358,0" class="g1_31" />
<path d="M108.5,788.5l358,0" class="g1_31" />
<path d="M108.5,810.5l0,-22" class="g1_31" />
<path d="M145.5,810.5l0,-22" class="g1_31" />
<path d="M466.5,810.5l0,-22" class="g1_31" />
<path d="M108.5,810.5l358,0" class="g1_31" />
<path d="M108.5,810.5l358,0" class="g1_31" />
<path d="M108.5,832.5l0,-21" class="g1_31" />
<path d="M145.5,832.5l0,-21" class="g1_31" />
<path d="M466.5,832.5l0,-21" class="g1_31" />
<path d="M108.5,832.5l358,0" class="g1_31" />
<path d="M108.5,832.5l358,0" class="g1_31" />
<path d="M108.5,854.5l0,-21" class="g1_31" />
<path d="M145.5,854.5l0,-21" class="g1_31" />
<path d="M466.5,854.5l0,-21" class="g1_31" />
<path d="M108.5,854.5l358,0" class="g1_31" />
<path d="M108.5,854.5l358,0" class="g1_31" />
<path d="M108.5,1129.5l456,0" class="g1_31" />
<path d="M108.5,1129.5l456,0" class="g1_31" />
<path d="M108.5,1151.5l0,-22" class="g1_31" />
<path d="M137.5,1151.5l0,-22" class="g1_31" />
<path d="M564.5,1151.5l0,-22" class="g1_31" />
<path d="M108.5,1151.5l456,0" class="g1_31" />
<path d="M108.5,1151.5l456,0" class="g1_31" />
<path d="M108.5,1173.5l0,-21" class="g1_31" />
<path d="M137.5,1173.5l0,-21" class="g1_31" />
<path d="M564.5,1173.5l0,-21" class="g1_31" />
<path d="M108.5,1173.5l456,0" class="g1_31" />
<path d="M108.5,1173.5l456,0" class="g1_31" />
<path d="M108.5,1197.5l693,0" class="g1_31" />
</svg>