<?xml version="1.0" encoding="UTF-8" standalone="no"?>
<!DOCTYPE svg PUBLIC "-//W3C//DTD SVG 1.1//EN"
"http://www.w3.org/Graphics/SVG/1.1/DTD/svg11.dtd">
<svg version="1.1" xmlns="http://www.w3.org/2000/svg" xmlns:xlink="http://www.w3.org/1999/xlink">
<defs>
<style type="text/css"><![CDATA[
.g1_23{
fill: none;
stroke: #000000;
stroke-width: 1;
stroke-linecap: butt;
stroke-linejoin: miter;
}
]]></style>
</defs>
<path d="M108.5,81.5l693,0" class="g1_23" />
<path d="M108.5,217.5l155,0" class="g1_23" />
<path d="M108.5,217.5l155,0" class="g1_23" />
<path d="M108.5,239.5l0,-22" class="g1_23" />
<path d="M138.5,239.5l0,-22" class="g1_23" />
<path d="M263.5,239.5l0,-22" class="g1_23" />
<path d="M108.5,239.5l155,0" class="g1_23" />
<path d="M108.5,239.5l155,0" class="g1_23" />
<path d="M108.5,279.5l0,-40" class="g1_23" />
<path d="M138.5,279.5l0,-40" class="g1_23" />
<path d="M263.5,279.5l0,-40" class="g1_23" />
<path d="M108.5,279.5l155,0" class="g1_23" />
<path d="M108.5,279.5l155,0" class="g1_23" />
<path d="M108.5,503.5l281,0" class="g1_23" />
<path d="M108.5,503.5l281,0" class="g1_23" />
<path d="M108.5,525.5l0,-22" class="g1_23" />
<path d="M146.5,525.5l0,-22" class="g1_23" />
<path d="M388.5,525.5l0,-22" class="g1_23" />
<path d="M108.5,525.5l281,0" class="g1_23" />
<path d="M108.5,525.5l281,0" class="g1_23" />
<path d="M108.5,547.5l0,-22" class="g1_23" />
<path d="M146.5,547.5l0,-22" class="g1_23" />
<path d="M388.5,547.5l0,-22" class="g1_23" />
<path d="M108.5,547.5l281,0" class="g1_23" />
<path d="M108.5,547.5l281,0" class="g1_23" />
<path d="M108.5,569.5l0,-22" class="g1_23" />
<path d="M146.5,569.5l0,-22" class="g1_23" />
<path d="M388.5,569.5l0,-22" class="g1_23" />
<path d="M108.5,569.5l281,0" class="g1_23" />
<path d="M108.5,569.5l281,0" class="g1_23" />
<path d="M108.5,592.5l0,-22" class="g1_23" />
<path d="M146.5,592.5l0,-22" class="g1_23" />
<path d="M388.5,592.5l0,-22" class="g1_23" />
<path d="M108.5,592.5l281,0" class="g1_23" />
<path d="M108.5,592.5l281,0" class="g1_23" />
<path d="M108.5,904.5l339,0" class="g1_23" />
<path d="M108.5,904.5l339,0" class="g1_23" />
<path d="M108.5,926.5l0,-21" class="g1_23" />
<path d="M145.5,926.5l0,-21" class="g1_23" />
<path d="M446.5,926.5l0,-21" class="g1_23" />
<path d="M108.5,926.5l339,0" class="g1_23" />
<path d="M108.5,926.5l339,0" class="g1_23" />
<path d="M108.5,948.5l0,-21" class="g1_23" />
<path d="M145.5,948.5l0,-21" class="g1_23" />
<path d="M446.5,948.5l0,-21" class="g1_23" />
<path d="M108.5,948.5l339,0" class="g1_23" />
<path d="M108.5,948.5l339,0" class="g1_23" />
<path d="M108.5,970.5l0,-22" class="g1_23" />
<path d="M145.5,970.5l0,-22" class="g1_23" />
<path d="M446.5,970.5l0,-22" class="g1_23" />
<path d="M108.5,971.5l339,0" class="g1_23" />
<path d="M108.5,971.5l339,0" class="g1_23" />
<path d="M108.5,992.5l0,-21" class="g1_23" />
<path d="M145.5,992.5l0,-21" class="g1_23" />
<path d="M446.5,992.5l0,-21" class="g1_23" />
<path d="M108.5,992.5l339,0" class="g1_23" />
<path d="M108.5,992.5l339,0" class="g1_23" />
<path d="M108.5,1197.5l693,0" class="g1_23" />
</svg>