<?xml version="1.0" encoding="UTF-8" standalone="no"?>
<!DOCTYPE svg PUBLIC "-//W3C//DTD SVG 1.1//EN"
"http://www.w3.org/Graphics/SVG/1.1/DTD/svg11.dtd">
<svg version="1.1" xmlns="http://www.w3.org/2000/svg" xmlns:xlink="http://www.w3.org/1999/xlink">
<defs>
<style type="text/css"><![CDATA[
.g1_42{
fill: none;
stroke: #000000;
stroke-width: 1;
stroke-linecap: butt;
stroke-linejoin: miter;
}
]]></style>
</defs>
<path d="M108.5,81.5l693,0" class="g1_42" />
<path d="M108.5,135.5l456,0" class="g1_42" />
<path d="M108.5,135.5l456,0" class="g1_42" />
<path d="M108.5,157.5l0,-22" class="g1_42" />
<path d="M137.5,157.5l0,-22" class="g1_42" />
<path d="M564.5,157.5l0,-22" class="g1_42" />
<path d="M108.5,157.5l456,0" class="g1_42" />
<path d="M108.5,157.5l456,0" class="g1_42" />
<path d="M108.5,381.5l367,0" class="g1_42" />
<path d="M108.5,381.5l367,0" class="g1_42" />
<path d="M108.5,403.5l0,-22" class="g1_42" />
<path d="M136.5,403.5l0,-22" class="g1_42" />
<path d="M475.5,403.5l0,-22" class="g1_42" />
<path d="M108.5,403.5l367,0" class="g1_42" />
<path d="M108.5,403.5l367,0" class="g1_42" />
<path d="M108.5,425.5l0,-22" class="g1_42" />
<path d="M136.5,425.5l0,-22" class="g1_42" />
<path d="M475.5,425.5l0,-22" class="g1_42" />
<path d="M108.5,425.5l367,0" class="g1_42" />
<path d="M108.5,425.5l367,0" class="g1_42" />
<path d="M108.5,700.5l457,0" class="g1_42" />
<path d="M108.5,700.5l457,0" class="g1_42" />
<path d="M108.5,722.5l0,-22" class="g1_42" />
<path d="M138.5,722.5l0,-22" class="g1_42" />
<path d="M565.5,722.5l0,-22" class="g1_42" />
<path d="M108.5,722.5l457,0" class="g1_42" />
<path d="M108.5,722.5l457,0" class="g1_42" />
<path d="M108.5,744.5l0,-22" class="g1_42" />
<path d="M138.5,744.5l0,-22" class="g1_42" />
<path d="M565.5,744.5l0,-22" class="g1_42" />
<path d="M108.5,744.5l457,0" class="g1_42" />
<path d="M108.5,744.5l457,0" class="g1_42" />
<path d="M108.5,766.5l0,-22" class="g1_42" />
<path d="M138.5,766.5l0,-22" class="g1_42" />
<path d="M565.5,766.5l0,-22" class="g1_42" />
<path d="M108.5,766.5l457,0" class="g1_42" />
<path d="M108.5,766.5l457,0" class="g1_42" />
<path d="M108.5,788.5l0,-21" class="g1_42" />
<path d="M138.5,788.5l0,-21" class="g1_42" />
<path d="M565.5,788.5l0,-21" class="g1_42" />
<path d="M108.5,789.5l457,0" class="g1_42" />
<path d="M108.5,789.5l457,0" class="g1_42" />
<path d="M108.5,1063.5l358,0" class="g1_42" />
<path d="M108.5,1063.5l358,0" class="g1_42" />
<path d="M108.5,1101.5l0,-37" class="g1_42" />
<path d="M159.5,1101.5l0,-37" class="g1_42" />
<path d="M465.5,1101.5l0,-37" class="g1_42" />
<path d="M108.5,1101.5l358,0" class="g1_42" />
<path d="M108.5,1101.5l358,0" class="g1_42" />
<path d="M108.5,1197.5l693,0" class="g1_42" />
</svg>