<?xml version="1.0" encoding="UTF-8" standalone="no"?>
<!DOCTYPE svg PUBLIC "-//W3C//DTD SVG 1.1//EN"
"http://www.w3.org/Graphics/SVG/1.1/DTD/svg11.dtd">
<svg version="1.1" xmlns="http://www.w3.org/2000/svg" xmlns:xlink="http://www.w3.org/1999/xlink">
<defs>
<style type="text/css"><![CDATA[
.g1_37{
fill: none;
stroke: #000000;
stroke-width: 1;
stroke-linecap: butt;
stroke-linejoin: miter;
}
]]></style>
</defs>
<path d="M108.5,81.5l693,0" class="g1_37" />
<path d="M108.5,318.5l265,0" class="g1_37" />
<path d="M108.5,318.5l265,0" class="g1_37" />
<path d="M108.5,340.5l0,-21" class="g1_37" />
<path d="M145.5,340.5l0,-21" class="g1_37" />
<path d="M373.5,340.5l0,-21" class="g1_37" />
<path d="M108.5,341.5l265,0" class="g1_37" />
<path d="M108.5,341.5l265,0" class="g1_37" />
<path d="M108.5,363.5l0,-22" class="g1_37" />
<path d="M145.5,363.5l0,-22" class="g1_37" />
<path d="M373.5,363.5l0,-22" class="g1_37" />
<path d="M108.5,363.5l265,0" class="g1_37" />
<path d="M108.5,363.5l265,0" class="g1_37" />
<path d="M108.5,385.5l0,-22" class="g1_37" />
<path d="M145.5,385.5l0,-22" class="g1_37" />
<path d="M373.5,385.5l0,-22" class="g1_37" />
<path d="M108.5,385.5l265,0" class="g1_37" />
<path d="M108.5,385.5l265,0" class="g1_37" />
<path d="M108.5,660.5l260,0" class="g1_37" />
<path d="M108.5,660.5l260,0" class="g1_37" />
<path d="M108.5,682.5l0,-22" class="g1_37" />
<path d="M144.5,682.5l0,-22" class="g1_37" />
<path d="M368.5,682.5l0,-22" class="g1_37" />
<path d="M108.5,682.5l260,0" class="g1_37" />
<path d="M108.5,682.5l260,0" class="g1_37" />
<path d="M108.5,704.5l0,-22" class="g1_37" />
<path d="M144.5,704.5l0,-22" class="g1_37" />
<path d="M368.5,704.5l0,-22" class="g1_37" />
<path d="M108.5,704.5l260,0" class="g1_37" />
<path d="M108.5,704.5l260,0" class="g1_37" />
<path d="M108.5,726.5l0,-21" class="g1_37" />
<path d="M144.5,726.5l0,-21" class="g1_37" />
<path d="M368.5,726.5l0,-21" class="g1_37" />
<path d="M108.5,727.5l260,0" class="g1_37" />
<path d="M108.5,727.5l260,0" class="g1_37" />
<path d="M108.5,1094.5l583,0" class="g1_37" />
<path d="M108.5,1094.5l583,0" class="g1_37" />
<path d="M108.5,1116.5l0,-22" class="g1_37" />
<path d="M195.5,1116.5l0,-22" class="g1_37" />
<path d="M691.5,1116.5l0,-22" class="g1_37" />
<path d="M108.5,1116.5l583,0" class="g1_37" />
<path d="M108.5,1116.5l583,0" class="g1_37" />
<path d="M108.5,1138.5l0,-22" class="g1_37" />
<path d="M195.5,1138.5l0,-22" class="g1_37" />
<path d="M691.5,1138.5l0,-22" class="g1_37" />
<path d="M108.5,1138.5l583,0" class="g1_37" />
<path d="M108.5,1138.5l583,0" class="g1_37" />
<path d="M108.5,1162.5l0,-23" class="g1_37" />
<path d="M195.5,1162.5l0,-23" class="g1_37" />
<path d="M691.5,1162.5l0,-23" class="g1_37" />
<path d="M108.5,1163.5l583,0" class="g1_37" />
<path d="M108.5,1163.5l583,0" class="g1_37" />
<path d="M108.5,1187.5l0,-24" class="g1_37" />
<path d="M195.5,1187.5l0,-24" class="g1_37" />
<path d="M691.5,1187.5l0,-24" class="g1_37" />
<path d="M108.5,1187.5l583,0" class="g1_37" />
<path d="M108.5,1197.5l693,0" class="g1_37" />
</svg>