<?xml version="1.0" encoding="UTF-8" standalone="no"?>
<!DOCTYPE svg PUBLIC "-//W3C//DTD SVG 1.1//EN"
"http://www.w3.org/Graphics/SVG/1.1/DTD/svg11.dtd">
<svg version="1.1" xmlns="http://www.w3.org/2000/svg" xmlns:xlink="http://www.w3.org/1999/xlink">
<defs>
<style type="text/css"><![CDATA[
.g1_47{
fill: none;
stroke: #000000;
stroke-width: 1;
stroke-linecap: butt;
stroke-linejoin: miter;
}
]]></style>
</defs>
<path d="M108.5,81.5l693,0" class="g1_47" />
<path d="M108.5,240.5l184,0" class="g1_47" />
<path d="M108.5,240.5l184,0" class="g1_47" />
<path d="M108.5,262.5l0,-21" class="g1_47" />
<path d="M163.5,262.5l0,-21" class="g1_47" />
<path d="M292.5,262.5l0,-21" class="g1_47" />
<path d="M108.5,262.5l184,0" class="g1_47" />
<path d="M108.5,262.5l184,0" class="g1_47" />
<path d="M108.5,283.5l0,-20" class="g1_47" />
<path d="M163.5,283.5l0,-20" class="g1_47" />
<path d="M292.5,283.5l0,-20" class="g1_47" />
<path d="M108.5,283.5l184,0" class="g1_47" />
<path d="M108.5,283.5l184,0" class="g1_47" />
<path d="M108.5,305.5l0,-22" class="g1_47" />
<path d="M163.5,305.5l0,-22" class="g1_47" />
<path d="M292.5,305.5l0,-22" class="g1_47" />
<path d="M108.5,305.5l184,0" class="g1_47" />
<path d="M108.5,305.5l184,0" class="g1_47" />
<path d="M108.5,325.5l0,-20" class="g1_47" />
<path d="M163.5,325.5l0,-20" class="g1_47" />
<path d="M292.5,325.5l0,-20" class="g1_47" />
<path d="M108.5,326.5l184,0" class="g1_47" />
<path d="M108.5,326.5l184,0" class="g1_47" />
<path d="M108.5,707.5l236,0" class="g1_47" />
<path d="M108.5,707.5l236,0" class="g1_47" />
<path d="M108.5,729.5l0,-21" class="g1_47" />
<path d="M154.5,729.5l0,-21" class="g1_47" />
<path d="M344.5,729.5l0,-21" class="g1_47" />
<path d="M108.5,729.5l236,0" class="g1_47" />
<path d="M108.5,729.5l236,0" class="g1_47" />
<path d="M108.5,751.5l0,-21" class="g1_47" />
<path d="M154.5,751.5l0,-21" class="g1_47" />
<path d="M344.5,751.5l0,-21" class="g1_47" />
<path d="M108.5,752.5l236,0" class="g1_47" />
<path d="M108.5,752.5l236,0" class="g1_47" />
<path d="M108.5,774.5l0,-22" class="g1_47" />
<path d="M154.5,774.5l0,-22" class="g1_47" />
<path d="M344.5,774.5l0,-22" class="g1_47" />
<path d="M108.5,774.5l236,0" class="g1_47" />
<path d="M108.5,774.5l236,0" class="g1_47" />
<path d="M108.5,796.5l0,-22" class="g1_47" />
<path d="M154.5,796.5l0,-22" class="g1_47" />
<path d="M344.5,796.5l0,-22" class="g1_47" />
<path d="M108.5,796.5l236,0" class="g1_47" />
<path d="M108.5,796.5l236,0" class="g1_47" />
<path d="M108.5,1106.5l135,0" class="g1_47" />
<path d="M108.5,1106.5l135,0" class="g1_47" />
<path d="M108.5,1126.5l0,-20" class="g1_47" />
<path d="M141.5,1126.5l0,-20" class="g1_47" />
<path d="M242.5,1126.5l0,-20" class="g1_47" />
<path d="M108.5,1126.5l135,0" class="g1_47" />
<path d="M108.5,1126.5l135,0" class="g1_47" />
<path d="M108.5,1197.5l693,0" class="g1_47" />
</svg>