<?xml version="1.0" encoding="UTF-8" standalone="no"?>
<!DOCTYPE svg PUBLIC "-//W3C//DTD SVG 1.1//EN"
"http://www.w3.org/Graphics/SVG/1.1/DTD/svg11.dtd">
<svg version="1.1" xmlns="http://www.w3.org/2000/svg" xmlns:xlink="http://www.w3.org/1999/xlink">
<defs>
<style type="text/css"><![CDATA[
.g1_48{
fill: none;
stroke: #000000;
stroke-width: 1;
stroke-linecap: butt;
stroke-linejoin: miter;
}
]]></style>
</defs>
<path d="M108.5,81.5l693,0" class="g1_48" />
<path d="M108.5,455.5l101,0" class="g1_48" />
<path d="M108.5,455.5l101,0" class="g1_48" />
<path d="M108.5,475.5l0,-20" class="g1_48" />
<path d="M137.5,475.5l0,-20" class="g1_48" />
<path d="M209.5,475.5l0,-20" class="g1_48" />
<path d="M108.5,475.5l101,0" class="g1_48" />
<path d="M108.5,475.5l101,0" class="g1_48" />
<path d="M108.5,496.5l0,-20" class="g1_48" />
<path d="M137.5,496.5l0,-20" class="g1_48" />
<path d="M209.5,496.5l0,-20" class="g1_48" />
<path d="M108.5,496.5l101,0" class="g1_48" />
<path d="M108.5,496.5l101,0" class="g1_48" />
<path d="M108.5,516.5l0,-20" class="g1_48" />
<path d="M137.5,516.5l0,-20" class="g1_48" />
<path d="M209.5,516.5l0,-20" class="g1_48" />
<path d="M108.5,516.5l101,0" class="g1_48" />
<path d="M108.5,516.5l101,0" class="g1_48" />
<path d="M108.5,538.5l0,-21" class="g1_48" />
<path d="M137.5,538.5l0,-21" class="g1_48" />
<path d="M209.5,538.5l0,-21" class="g1_48" />
<path d="M108.5,538.5l101,0" class="g1_48" />
<path d="M108.5,538.5l101,0" class="g1_48" />
<path d="M108.5,848.5l379,0" class="g1_48" />
<path d="M108.5,848.5l379,0" class="g1_48" />
<path d="M108.5,870.5l0,-22" class="g1_48" />
<path d="M157.5,870.5l0,-22" class="g1_48" />
<path d="M487.5,870.5l0,-22" class="g1_48" />
<path d="M108.5,871.5l379,0" class="g1_48" />
<path d="M108.5,871.5l379,0" class="g1_48" />
<path d="M108.5,1094.5l379,0" class="g1_48" />
<path d="M108.5,1094.5l379,0" class="g1_48" />
<path d="M108.5,1116.5l0,-21" class="g1_48" />
<path d="M157.5,1116.5l0,-21" class="g1_48" />
<path d="M487.5,1116.5l0,-21" class="g1_48" />
<path d="M108.5,1117.5l379,0" class="g1_48" />
<path d="M108.5,1117.5l379,0" class="g1_48" />
<path d="M108.5,1197.5l693,0" class="g1_48" />
</svg>