<?xml version="1.0" encoding="UTF-8" standalone="no"?>
<!DOCTYPE svg PUBLIC "-//W3C//DTD SVG 1.1//EN"
"http://www.w3.org/Graphics/SVG/1.1/DTD/svg11.dtd">
<svg version="1.1" xmlns="http://www.w3.org/2000/svg" xmlns:xlink="http://www.w3.org/1999/xlink">
<defs>
<style type="text/css"><![CDATA[
.g1_36{
fill: none;
stroke: #000000;
stroke-width: 1;
stroke-linecap: butt;
stroke-linejoin: miter;
}
]]></style>
</defs>
<path d="M108.5,81.5l693,0" class="g1_36" />
<path d="M108.5,135.5l456,0" class="g1_36" />
<path d="M108.5,135.5l456,0" class="g1_36" />
<path d="M108.5,157.5l0,-22" class="g1_36" />
<path d="M137.5,157.5l0,-22" class="g1_36" />
<path d="M564.5,157.5l0,-22" class="g1_36" />
<path d="M108.5,157.5l456,0" class="g1_36" />
<path d="M108.5,157.5l456,0" class="g1_36" />
<path d="M108.5,380.5l246,0" class="g1_36" />
<path d="M108.5,380.5l246,0" class="g1_36" />
<path d="M108.5,402.5l0,-21" class="g1_36" />
<path d="M147.5,402.5l0,-21" class="g1_36" />
<path d="M354.5,402.5l0,-21" class="g1_36" />
<path d="M108.5,402.5l246,0" class="g1_36" />
<path d="M108.5,402.5l246,0" class="g1_36" />
<path d="M108.5,424.5l0,-21" class="g1_36" />
<path d="M147.5,424.5l0,-21" class="g1_36" />
<path d="M354.5,424.5l0,-21" class="g1_36" />
<path d="M108.5,425.5l246,0" class="g1_36" />
<path d="M108.5,425.5l246,0" class="g1_36" />
<path d="M108.5,447.5l0,-22" class="g1_36" />
<path d="M147.5,447.5l0,-22" class="g1_36" />
<path d="M354.5,447.5l0,-22" class="g1_36" />
<path d="M108.5,447.5l246,0" class="g1_36" />
<path d="M108.5,447.5l246,0" class="g1_36" />
<path d="M108.5,469.5l0,-22" class="g1_36" />
<path d="M147.5,469.5l0,-22" class="g1_36" />
<path d="M354.5,469.5l0,-22" class="g1_36" />
<path d="M108.5,469.5l246,0" class="g1_36" />
<path d="M108.5,469.5l246,0" class="g1_36" />
<path d="M108.5,491.5l0,-21" class="g1_36" />
<path d="M147.5,491.5l0,-21" class="g1_36" />
<path d="M354.5,491.5l0,-21" class="g1_36" />
<path d="M108.5,491.5l246,0" class="g1_36" />
<path d="M108.5,491.5l246,0" class="g1_36" />
<path d="M108.5,677.5l463,0" class="g1_36" />
<path d="M108.5,677.5l463,0" class="g1_36" />
<path d="M108.5,699.5l0,-22" class="g1_36" />
<path d="M142.5,699.5l0,-22" class="g1_36" />
<path d="M570.5,699.5l0,-22" class="g1_36" />
<path d="M108.5,699.5l463,0" class="g1_36" />
<path d="M108.5,699.5l463,0" class="g1_36" />
<path d="M108.5,721.5l0,-22" class="g1_36" />
<path d="M142.5,721.5l0,-22" class="g1_36" />
<path d="M570.5,721.5l0,-22" class="g1_36" />
<path d="M108.5,721.5l463,0" class="g1_36" />
<path d="M108.5,721.5l463,0" class="g1_36" />
<path d="M108.5,743.5l0,-22" class="g1_36" />
<path d="M142.5,743.5l0,-22" class="g1_36" />
<path d="M570.5,743.5l0,-22" class="g1_36" />
<path d="M108.5,743.5l463,0" class="g1_36" />
<path d="M108.5,743.5l463,0" class="g1_36" />
<path d="M108.5,765.5l0,-22" class="g1_36" />
<path d="M142.5,765.5l0,-22" class="g1_36" />
<path d="M570.5,765.5l0,-22" class="g1_36" />
<path d="M108.5,765.5l463,0" class="g1_36" />
<path d="M108.5,765.5l463,0" class="g1_36" />
<path d="M108.5,1040.5l456,0" class="g1_36" />
<path d="M108.5,1040.5l456,0" class="g1_36" />
<path d="M108.5,1062.5l0,-22" class="g1_36" />
<path d="M137.5,1062.5l0,-22" class="g1_36" />
<path d="M564.5,1062.5l0,-22" class="g1_36" />
<path d="M108.5,1062.5l456,0" class="g1_36" />
<path d="M108.5,1062.5l456,0" class="g1_36" />
<path d="M108.5,1084.5l0,-22" class="g1_36" />
<path d="M137.5,1084.5l0,-22" class="g1_36" />
<path d="M564.5,1084.5l0,-22" class="g1_36" />
<path d="M108.5,1084.5l456,0" class="g1_36" />
<path d="M108.5,1084.5l456,0" class="g1_36" />
<path d="M108.5,1197.5l693,0" class="g1_36" />
</svg>