<?xml version="1.0" encoding="UTF-8" standalone="no"?>
<!DOCTYPE svg PUBLIC "-//W3C//DTD SVG 1.1//EN"
"http://www.w3.org/Graphics/SVG/1.1/DTD/svg11.dtd">
<svg version="1.1" xmlns="http://www.w3.org/2000/svg" xmlns:xlink="http://www.w3.org/1999/xlink">
<defs>
<style type="text/css"><![CDATA[
.g1_34{
fill: none;
stroke: #000000;
stroke-width: 1;
stroke-linecap: butt;
stroke-linejoin: miter;
}
]]></style>
</defs>
<path d="M108.5,81.5l693,0" class="g1_34" />
<path d="M108.5,135.5l422,0" class="g1_34" />
<path d="M108.5,135.5l422,0" class="g1_34" />
<path d="M108.5,157.5l0,-22" class="g1_34" />
<path d="M145.5,157.5l0,-22" class="g1_34" />
<path d="M529.5,157.5l0,-22" class="g1_34" />
<path d="M108.5,157.5l422,0" class="g1_34" />
<path d="M108.5,157.5l422,0" class="g1_34" />
<path d="M108.5,179.5l0,-22" class="g1_34" />
<path d="M145.5,179.5l0,-22" class="g1_34" />
<path d="M529.5,179.5l0,-22" class="g1_34" />
<path d="M108.5,179.5l422,0" class="g1_34" />
<path d="M108.5,179.5l422,0" class="g1_34" />
<path d="M108.5,656.5l199,0" class="g1_34" />
<path d="M108.5,656.5l199,0" class="g1_34" />
<path d="M108.5,677.5l0,-21" class="g1_34" />
<path d="M138.5,677.5l0,-21" class="g1_34" />
<path d="M306.5,677.5l0,-21" class="g1_34" />
<path d="M108.5,678.5l199,0" class="g1_34" />
<path d="M108.5,678.5l199,0" class="g1_34" />
<path d="M108.5,700.5l0,-22" class="g1_34" />
<path d="M138.5,700.5l0,-22" class="g1_34" />
<path d="M306.5,700.5l0,-22" class="g1_34" />
<path d="M108.5,700.5l199,0" class="g1_34" />
<path d="M108.5,700.5l199,0" class="g1_34" />
<path d="M108.5,722.5l0,-22" class="g1_34" />
<path d="M138.5,722.5l0,-22" class="g1_34" />
<path d="M306.5,722.5l0,-22" class="g1_34" />
<path d="M108.5,722.5l199,0" class="g1_34" />
<path d="M108.5,722.5l199,0" class="g1_34" />
<path d="M108.5,926.5l363,0" class="g1_34" />
<path d="M108.5,926.5l363,0" class="g1_34" />
<path d="M108.5,948.5l0,-22" class="g1_34" />
<path d="M147.5,948.5l0,-22" class="g1_34" />
<path d="M471.5,948.5l0,-22" class="g1_34" />
<path d="M108.5,948.5l363,0" class="g1_34" />
<path d="M108.5,948.5l363,0" class="g1_34" />
<path d="M108.5,970.5l0,-22" class="g1_34" />
<path d="M147.5,970.5l0,-22" class="g1_34" />
<path d="M471.5,970.5l0,-22" class="g1_34" />
<path d="M108.5,970.5l363,0" class="g1_34" />
<path d="M108.5,970.5l363,0" class="g1_34" />
<path d="M108.5,994.5l0,-23" class="g1_34" />
<path d="M147.5,994.5l0,-23" class="g1_34" />
<path d="M471.5,994.5l0,-23" class="g1_34" />
<path d="M108.5,995.5l363,0" class="g1_34" />
<path d="M108.5,995.5l363,0" class="g1_34" />
<path d="M108.5,1016.5l0,-21" class="g1_34" />
<path d="M147.5,1016.5l0,-21" class="g1_34" />
<path d="M471.5,1016.5l0,-21" class="g1_34" />
<path d="M108.5,1017.5l363,0" class="g1_34" />
<path d="M108.5,1017.5l363,0" class="g1_34" />
<path d="M108.5,1038.5l0,-21" class="g1_34" />
<path d="M147.5,1038.5l0,-21" class="g1_34" />
<path d="M471.5,1038.5l0,-21" class="g1_34" />
<path d="M108.5,1039.5l363,0" class="g1_34" />
<path d="M108.5,1039.5l363,0" class="g1_34" />
<path d="M108.5,1060.5l0,-21" class="g1_34" />
<path d="M147.5,1060.5l0,-21" class="g1_34" />
<path d="M471.5,1060.5l0,-21" class="g1_34" />
<path d="M108.5,1061.5l363,0" class="g1_34" />
<path d="M108.5,1061.5l363,0" class="g1_34" />
<path d="M108.5,1082.5l0,-21" class="g1_34" />
<path d="M147.5,1082.5l0,-21" class="g1_34" />
<path d="M471.5,1082.5l0,-21" class="g1_34" />
<path d="M108.5,1083.5l363,0" class="g1_34" />
<path d="M108.5,1083.5l363,0" class="g1_34" />
<path d="M108.5,1104.5l0,-21" class="g1_34" />
<path d="M147.5,1104.5l0,-21" class="g1_34" />
<path d="M471.5,1104.5l0,-21" class="g1_34" />
<path d="M108.5,1105.5l363,0" class="g1_34" />
<path d="M108.5,1105.5l363,0" class="g1_34" />
<path d="M108.5,1197.5l693,0" class="g1_34" />
</svg>