<?xml version="1.0" encoding="UTF-8" standalone="no"?>
<!DOCTYPE svg PUBLIC "-//W3C//DTD SVG 1.1//EN"
"http://www.w3.org/Graphics/SVG/1.1/DTD/svg11.dtd">
<svg version="1.1" xmlns="http://www.w3.org/2000/svg" xmlns:xlink="http://www.w3.org/1999/xlink">
<defs>
<style type="text/css"><![CDATA[
.g1_41{
fill: none;
stroke: #000000;
stroke-width: 1;
stroke-linecap: butt;
stroke-linejoin: miter;
}
]]></style>
</defs>
<path d="M108.5,81.5l693,0" class="g1_41" />
<path d="M108.5,135.5l456,0" class="g1_41" />
<path d="M108.5,135.5l456,0" class="g1_41" />
<path d="M108.5,157.5l0,-22" class="g1_41" />
<path d="M137.5,157.5l0,-22" class="g1_41" />
<path d="M564.5,157.5l0,-22" class="g1_41" />
<path d="M108.5,157.5l456,0" class="g1_41" />
<path d="M108.5,157.5l456,0" class="g1_41" />
<path d="M108.5,179.5l0,-22" class="g1_41" />
<path d="M137.5,179.5l0,-22" class="g1_41" />
<path d="M564.5,179.5l0,-22" class="g1_41" />
<path d="M108.5,179.5l456,0" class="g1_41" />
<path d="M108.5,179.5l456,0" class="g1_41" />
<path d="M108.5,365.5l306,0" class="g1_41" />
<path d="M108.5,365.5l306,0" class="g1_41" />
<path d="M108.5,402.5l0,-37" class="g1_41" />
<path d="M159.5,402.5l0,-37" class="g1_41" />
<path d="M414.5,402.5l0,-37" class="g1_41" />
<path d="M108.5,402.5l306,0" class="g1_41" />
<path d="M108.5,402.5l306,0" class="g1_41" />
<path d="M108.5,424.5l0,-21" class="g1_41" />
<path d="M159.5,424.5l0,-21" class="g1_41" />
<path d="M414.5,424.5l0,-21" class="g1_41" />
<path d="M108.5,425.5l306,0" class="g1_41" />
<path d="M108.5,425.5l306,0" class="g1_41" />
<path d="M108.5,447.5l0,-22" class="g1_41" />
<path d="M159.5,447.5l0,-22" class="g1_41" />
<path d="M414.5,447.5l0,-22" class="g1_41" />
<path d="M108.5,447.5l306,0" class="g1_41" />
<path d="M108.5,447.5l306,0" class="g1_41" />
<path d="M108.5,633.5l219,0" class="g1_41" />
<path d="M108.5,633.5l219,0" class="g1_41" />
<path d="M108.5,655.5l0,-22" class="g1_41" />
<path d="M155.5,655.5l0,-22" class="g1_41" />
<path d="M326.5,655.5l0,-22" class="g1_41" />
<path d="M108.5,655.5l219,0" class="g1_41" />
<path d="M108.5,655.5l219,0" class="g1_41" />
<path d="M108.5,677.5l0,-22" class="g1_41" />
<path d="M155.5,677.5l0,-22" class="g1_41" />
<path d="M326.5,677.5l0,-22" class="g1_41" />
<path d="M108.5,677.5l219,0" class="g1_41" />
<path d="M108.5,677.5l219,0" class="g1_41" />
<path d="M108.5,699.5l0,-22" class="g1_41" />
<path d="M155.5,699.5l0,-22" class="g1_41" />
<path d="M326.5,699.5l0,-22" class="g1_41" />
<path d="M108.5,699.5l219,0" class="g1_41" />
<path d="M108.5,699.5l219,0" class="g1_41" />
<path d="M108.5,885.5l478,0" class="g1_41" />
<path d="M108.5,885.5l478,0" class="g1_41" />
<path d="M108.5,907.5l0,-22" class="g1_41" />
<path d="M159.5,907.5l0,-22" class="g1_41" />
<path d="M586.5,907.5l0,-22" class="g1_41" />
<path d="M108.5,907.5l478,0" class="g1_41" />
<path d="M108.5,907.5l478,0" class="g1_41" />
<path d="M108.5,929.5l0,-22" class="g1_41" />
<path d="M159.5,929.5l0,-22" class="g1_41" />
<path d="M586.5,929.5l0,-22" class="g1_41" />
<path d="M108.5,929.5l478,0" class="g1_41" />
<path d="M108.5,929.5l478,0" class="g1_41" />
<path d="M108.5,966.5l0,-37" class="g1_41" />
<path d="M159.5,966.5l0,-37" class="g1_41" />
<path d="M586.5,966.5l0,-37" class="g1_41" />
<path d="M108.5,967.5l478,0" class="g1_41" />
<path d="M108.5,967.5l478,0" class="g1_41" />
<path d="M108.5,988.5l0,-21" class="g1_41" />
<path d="M159.5,988.5l0,-21" class="g1_41" />
<path d="M586.5,988.5l0,-21" class="g1_41" />
<path d="M108.5,989.5l478,0" class="g1_41" />
<path d="M108.5,989.5l478,0" class="g1_41" />
<path d="M108.5,1197.5l693,0" class="g1_41" />
</svg>