<?xml version="1.0" encoding="UTF-8" standalone="no"?>
<!DOCTYPE svg PUBLIC "-//W3C//DTD SVG 1.1//EN"
"http://www.w3.org/Graphics/SVG/1.1/DTD/svg11.dtd">
<svg version="1.1" xmlns="http://www.w3.org/2000/svg" xmlns:xlink="http://www.w3.org/1999/xlink">
<defs>
<style type="text/css"><![CDATA[
.g1_46{
fill: none;
stroke: #000000;
stroke-width: 1;
stroke-linecap: butt;
stroke-linejoin: miter;
}
]]></style>
</defs>
<path d="M108.5,81.5l693,0" class="g1_46" />
<path d="M108.5,425.5l236,0" class="g1_46" />
<path d="M108.5,425.5l236,0" class="g1_46" />
<path d="M108.5,447.5l0,-21" class="g1_46" />
<path d="M154.5,447.5l0,-21" class="g1_46" />
<path d="M344.5,447.5l0,-21" class="g1_46" />
<path d="M108.5,447.5l236,0" class="g1_46" />
<path d="M108.5,447.5l236,0" class="g1_46" />
<path d="M108.5,469.5l0,-21" class="g1_46" />
<path d="M154.5,469.5l0,-21" class="g1_46" />
<path d="M344.5,469.5l0,-21" class="g1_46" />
<path d="M108.5,470.5l236,0" class="g1_46" />
<path d="M108.5,470.5l236,0" class="g1_46" />
<path d="M108.5,492.5l0,-22" class="g1_46" />
<path d="M154.5,492.5l0,-22" class="g1_46" />
<path d="M344.5,492.5l0,-22" class="g1_46" />
<path d="M108.5,492.5l236,0" class="g1_46" />
<path d="M108.5,492.5l236,0" class="g1_46" />
<path d="M108.5,514.5l0,-22" class="g1_46" />
<path d="M154.5,514.5l0,-22" class="g1_46" />
<path d="M344.5,514.5l0,-22" class="g1_46" />
<path d="M108.5,514.5l236,0" class="g1_46" />
<path d="M108.5,514.5l236,0" class="g1_46" />
<path d="M108.5,895.5l335,0" class="g1_46" />
<path d="M108.5,895.5l335,0" class="g1_46" />
<path d="M108.5,917.5l0,-22" class="g1_46" />
<path d="M189.5,917.5l0,-22" class="g1_46" />
<path d="M442.5,917.5l0,-22" class="g1_46" />
<path d="M108.5,917.5l335,0" class="g1_46" />
<path d="M108.5,917.5l335,0" class="g1_46" />
<path d="M108.5,939.5l0,-21" class="g1_46" />
<path d="M189.5,939.5l0,-21" class="g1_46" />
<path d="M442.5,939.5l0,-21" class="g1_46" />
<path d="M108.5,940.5l335,0" class="g1_46" />
<path d="M108.5,940.5l335,0" class="g1_46" />
<path d="M108.5,962.5l0,-22" class="g1_46" />
<path d="M189.5,962.5l0,-22" class="g1_46" />
<path d="M442.5,962.5l0,-22" class="g1_46" />
<path d="M108.5,962.5l335,0" class="g1_46" />
<path d="M108.5,962.5l335,0" class="g1_46" />
<path d="M108.5,984.5l0,-22" class="g1_46" />
<path d="M189.5,984.5l0,-22" class="g1_46" />
<path d="M442.5,984.5l0,-22" class="g1_46" />
<path d="M108.5,984.5l335,0" class="g1_46" />
<path d="M108.5,984.5l335,0" class="g1_46" />
<path d="M108.5,1197.5l693,0" class="g1_46" />
</svg>